AnekLatin-ExpandedThin.ufo
<glyph name="colon" format="2">
  <advance width="412"/>
  <unicode hex="003A"/>
  <outline>
    <contour>
      <point x="205" y="-14" type="curve" smooth="yes"/>
      <point x="243" y="-14"/>
      <point x="264" y="4"/>
      <point x="264" y="39" type="curve" smooth="yes"/>
      <point x="264" y="43" type="line" smooth="yes"/>
      <point x="264" y="77"/>
      <point x="243" y="94"/>
      <point x="205" y="94" type="curve" smooth="yes"/>
      <point x="170" y="94"/>
      <point x="148" y="77"/>
      <point x="148" y="43" type="curve" smooth="yes"/>
      <point x="148" y="39" type="line" smooth="yes"/>
      <point x="148" y="4"/>
      <point x="170" y="-14"/>
    </contour>
    <contour>
      <point x="205" y="779" type="curve" smooth="yes"/>
      <point x="243" y="779"/>
      <point x="264" y="797"/>
      <point x="264" y="832" type="curve" smooth="yes"/>
      <point x="264" y="836" type="line" smooth="yes"/>
      <point x="264" y="870"/>
      <point x="243" y="887"/>
      <point x="205" y="887" type="curve" smooth="yes"/>
      <point x="170" y="887"/>
      <point x="148" y="870"/>
      <point x="148" y="836" type="curve" smooth="yes"/>
      <point x="148" y="832" type="line" smooth="yes"/>
      <point x="148" y="797"/>
      <point x="170" y="779"/>
    </contour>
  </outline>
</glyph>
<glyph name="guillemetright" format="2">
  <advance width="1320"/>
  <unicode hex="00BB"/>
  <outline>
    <contour>
      <point x="686" y="91" type="line"/>
      <point x="743" y="91" type="line"/>
      <point x="1205" y="450" type="line"/>
      <point x="1205" y="498" type="line"/>
      <point x="743" y="857" type="line"/>
      <point x="686" y="857" type="line"/>
      <point x="1173" y="474" type="line"/>
    </contour>
    <contour>
      <point x="85" y="91" type="line"/>
      <point x="142" y="91" type="line"/>
      <point x="604" y="450" type="line"/>
      <point x="604" y="498" type="line"/>
      <point x="142" y="857" type="line"/>
      <point x="85" y="857" type="line"/>
      <point x="572" y="474" type="line"/>
    </contour>
  </outline>
</glyph>
<glyph name="multiply" format="2">
  <advance width="1350"/>
  <unicode hex="00D7"/>
  <outline>
    <contour>
      <point x="1125" y="193" type="line"/>
      <point x="253" y="1058" type="line"/>
      <point x="228" y="1033" type="line"/>
      <point x="1100" y="168" type="line"/>
    </contour>
    <contour>
      <point x="225" y="193" type="line"/>
      <point x="250" y="168" type="line"/>
      <point x="1122" y="1033" type="line"/>
      <point x="1097" y="1058" type="line"/>
    </contour>
  </outline>
</glyph>
<glyph name="dcroat" format="2">
  <advance width="1441"/>
  <unicode hex="0111"/>
  <anchor x="721" y="0" name="bottom"/>
  <anchor x="721" y="476" name="center"/>
  <anchor x="721" y="1324" name="top"/>
  <anchor x="1485" y="1324" name="topright"/>
  <outline>
    <contour>
      <point x="640" y="1119" type="line"/>
      <point x="1441" y="1119" type="line"/>
      <point x="1441" y="1150" type="line"/>
      <point x="640" y="1150" type="line"/>
    </contour>
    <component base="d"/>
  </outline>
</glyph>
<glyph name="eogonek" format="2">
  <advance width="1323"/>
  <unicode hex="0119"/>
  <anchor x="666" y="0" name="bottom"/>
  <anchor x="956" y="0" name="ogonek"/>
  <anchor x="666" y="952" name="top"/>
  <outline>
    <contour>
      <point x="1014" y="-406" type="curve" smooth="yes"/>
      <point x="1065" y="-406"/>
      <point x="1123" y="-394"/>
      <point x="1153" y="-376" type="curve"/>
      <point x="1161" y="-340" type="line"/>
      <point x="1113" y="-364"/>
      <point x="1069" y="-372"/>
      <point x="1021" y="-372" type="curve" smooth="yes"/>
      <point x="917" y="-372"/>
      <point x="849" y="-329"/>
      <point x="849" y="-225" type="curve" smooth="yes"/>
      <point x="849" y="-223" type="line" smooth="yes"/>
      <point x="849" y="-115"/>
      <point x="925" y="-25"/>
      <point x="1034" y="41" type="curve"/>
      <point x="1034" y="49" type="line"/>
      <point x="986" y="35" type="line"/>
      <point x="986" y="35" type="line"/>
      <point x="886" y="-24"/>
      <point x="812" y="-112"/>
      <point x="812" y="-226" type="curve" smooth="yes"/>
      <point x="812" y="-227" type="line" smooth="yes"/>
      <point x="812" y="-342"/>
      <point x="886" y="-406"/>
    </contour>
    <component base="e"/>
  </outline>
</glyph>
<glyph name="Hbar" format="2">
  <advance width="1658"/>
  <unicode hex="0126"/>
  <anchor x="829" y="0" name="bottom"/>
  <anchor x="829" y="639" name="center"/>
  <anchor x="829" y="1278" name="top"/>
  <anchor x="20" y="1278" name="topleft"/>
  <outline>
    <contour>
      <point x="25" y="967" type="line"/>
      <point x="1633" y="967" type="line"/>
      <point x="1633" y="1000" type="line"/>
      <point x="25" y="1000" type="line"/>
    </contour>
    <component base="H"/>
  </outline>
</glyph>
<glyph name="hbar" format="2">
  <advance width="1385"/>
  <unicode hex="0127"/>
  <anchor x="693" y="0" name="bottom"/>
  <anchor x="693" y="646" name="center"/>
  <anchor x="221" y="1324" name="top"/>
  <outline>
    <contour>
      <point x="0" y="1119" type="line"/>
      <point x="761" y="1119" type="line"/>
      <point x="761" y="1150" type="line"/>
      <point x="0" y="1150" type="line"/>
    </contour>
    <component base="h"/>
  </outline>
</glyph>
<glyph name="kgreenlandic" format="2">
  <advance width="1260"/>
  <unicode hex="0138"/>
  <anchor x="630" y="0" name="bottom"/>
  <anchor x="630" y="952" name="top"/>
  <outline>
    <contour>
      <point x="1121" y="0" type="line"/>
      <point x="1188" y="0" type="line"/>
      <point x="423" y="495" type="line"/>
      <point x="423" y="470" type="line"/>
      <point x="1161" y="952" type="line"/>
      <point x="1093" y="952" type="line"/>
      <point x="402" y="499" type="line"/>
      <point x="229" y="499" type="line"/>
      <point x="229" y="465" type="line"/>
      <point x="402" y="465" type="line"/>
    </contour>
    <contour>
      <point x="202" y="0" type="line"/>
      <point x="240" y="0" type="line"/>
      <point x="240" y="952" type="line"/>
      <point x="202" y="952" type="line"/>
    </contour>
  </outline>
</glyph>
<glyph name="Lslash" format="2">
  <advance width="1399"/>
  <unicode hex="0141"/>
  <anchor x="776" y="0" name="bottom"/>
  <anchor x="716" y="639" name="center"/>
  <anchor x="288" y="1278" name="top"/>
  <anchor x="1004" y="1278" name="topright"/>
  <outline>
    <contour>
      <point x="937" y="939" type="line"/>
      <point x="40" y="662" type="line"/>
      <point x="40" y="628" type="line"/>
      <point x="937" y="905" type="line"/>
    </contour>
    <component base="L" xOffset="32"/>
  </outline>
</glyph>
<glyph name="lslash" format="2">
  <advance width="517"/>
  <unicode hex="0142"/>
  <anchor x="259" y="0" name="bottom"/>
  <anchor x="259" y="646" name="center"/>
  <anchor x="259" y="1324" name="top"/>
  <anchor x="524" y="1324" name="topright"/>
  <outline>
    <contour>
      <point x="10" y="597" type="line"/>
      <point x="507" y="903" type="line"/>
      <point x="507" y="942" type="line"/>
      <point x="10" y="636" type="line"/>
    </contour>
    <component base="l" xOffset="34"/>
  </outline>
</glyph>
<glyph name="Eng" format="2">
  <advance width="1658"/>
  <unicode hex="014A"/>
  <outline>
    <contour>
      <point x="236" y="0" type="line"/>
      <point x="276" y="0" type="line"/>
      <point x="276" y="609" type="line"/>
      <point x="275" y="1246" type="line"/>
      <point x="293" y="1246" type="line"/>
      <point x="1344" y="0" type="line"/>
      <point x="1410" y="0" type="line"/>
      <point x="1422" y="14" type="line"/>
      <point x="1422" y="1278" type="line"/>
      <point x="1382" y="1278" type="line"/>
      <point x="1382" y="586" type="line"/>
      <point x="1383" y="32" type="line"/>
      <point x="1365" y="32" type="line"/>
      <point x="314" y="1278" type="line"/>
      <point x="236" y="1278" type="line"/>
    </contour>
    <contour>
      <point x="1096" y="-352" type="curve" smooth="yes"/>
      <point x="1336" y="-352"/>
      <point x="1422" y="-240"/>
      <point x="1422" y="-16" type="curve" smooth="yes"/>
      <point x="1422" y="232" type="line"/>
      <point x="1384" y="232" type="line"/>
      <point x="1384" y="-16" type="line" smooth="yes"/>
      <point x="1384" y="-219"/>
      <point x="1310" y="-317"/>
      <point x="1102" y="-317" type="curve" smooth="yes"/>
      <point x="1027" y="-317"/>
      <point x="954" y="-302"/>
      <point x="890" y="-273" type="curve"/>
      <point x="896" y="-314" type="line"/>
      <point x="946" y="-334"/>
      <point x="1018" y="-352"/>
    </contour>
  </outline>
</glyph>
<glyph name="tcaron" format="2">
  <advance width="1119"/>
  <unicode hex="0165"/>
  <anchor x="621" y="0" name="bottom"/>
  <anchor x="560" y="476" name="center"/>
  <anchor x="279" y="1203" name="top"/>
  <anchor x="890" y="1402" name="topright"/>
  <outline>
    <contour>
      <point x="926" y="1402" type="curve"/>
      <point x="892" y="1402" type="line"/>
      <point x="897" y="1376"/>
      <point x="900" y="1350"/>
      <point x="900" y="1319" type="curve" smooth="yes"/>
      <point x="900" y="1220"/>
      <point x="872" y="1142"/>
      <point x="786" y="1064" type="curve"/>
      <point x="808" y="1049" type="line"/>
      <point x="902" y="1131"/>
      <point x="934" y="1215"/>
      <point x="934" y="1320" type="curve" smooth="yes"/>
      <point x="934" y="1356"/>
      <point x="929" y="1386"/>
    </contour>
    <component base="t"/>
  </outline>
</glyph>
<glyph name="Tbar" format="2">
  <advance width="1460"/>
  <unicode hex="0166"/>
  <anchor x="730" y="0" name="bottom"/>
  <anchor x="730" y="639" name="center"/>
  <anchor x="730" y="1278" name="top"/>
  <outline>
    <contour>
      <point x="249" y="637" type="line"/>
      <point x="1212" y="637" type="line"/>
      <point x="1212" y="671" type="line"/>
      <point x="249" y="671" type="line"/>
    </contour>
    <component base="T"/>
  </outline>
</glyph>
<glyph name="tbar" format="2">
  <advance width="1131"/>
  <unicode hex="0167"/>
  <outline>
    <contour>
      <point x="665" y="-25" type="curve" smooth="yes"/>
      <point x="794" y="-25"/>
      <point x="924" y="9"/>
      <point x="1022" y="62" type="curve"/>
      <point x="1027" y="103" type="line"/>
      <point x="910" y="37"/>
      <point x="787" y="9"/>
      <point x="665" y="9" type="curve" smooth="yes"/>
      <point x="403" y="9"/>
      <point x="308" y="112"/>
      <point x="308" y="329" type="curve" smooth="yes"/>
      <point x="308" y="899" type="line"/>
      <point x="271" y="899" type="line"/>
      <point x="271" y="329" type="line" smooth="yes"/>
      <point x="271" y="85"/>
      <point x="386" y="-25"/>
    </contour>
    <contour>
      <point x="54" y="478" type="line"/>
      <point x="975" y="478" type="line"/>
      <point x="975" y="510" type="line"/>
      <point x="54" y="510" type="line"/>
    </contour>
    <contour>
      <point x="24" y="888" type="line"/>
      <point x="1022" y="888" type="line"/>
      <point x="1027" y="920" type="line"/>
      <point x="24" y="920" type="line"/>
    </contour>
    <contour>
      <point x="271" y="911" type="line"/>
      <point x="307" y="911" type="line"/>
      <point x="310" y="1233" type="line"/>
      <point x="271" y="1218" type="line"/>
    </contour>
  </outline>
</glyph>
<glyph name="Uogonek" format="2">
  <advance width="1630"/>
  <unicode hex="0172"/>
  <anchor x="815" y="0" name="bottom"/>
  <anchor x="1055" y="0" name="ogonek"/>
  <anchor x="815" y="1278" name="top"/>
  <anchor x="1580" y="1278" name="topright"/>
  <outline>
    <contour>
      <point x="956" y="-406" type="curve" smooth="yes"/>
      <point x="1007" y="-406"/>
      <point x="1065" y="-394"/>
      <point x="1095" y="-376" type="curve"/>
      <point x="1103" y="-340" type="line"/>
      <point x="1055" y="-364"/>
      <point x="1011" y="-372"/>
      <point x="963" y="-372" type="curve" smooth="yes"/>
      <point x="867" y="-372"/>
      <point x="805" y="-333"/>
      <point x="805" y="-240" type="curve" smooth="yes"/>
      <point x="805" y="-238" type="line" smooth="yes"/>
      <point x="805" y="-141"/>
      <point x="887" y="-60"/>
      <point x="1004" y="0" type="curve"/>
      <point x="1004" y="8" type="line"/>
      <point x="954" y="-3" type="line"/>
      <point x="954" y="-3" type="line"/>
      <point x="847" y="-57"/>
      <point x="768" y="-137"/>
      <point x="768" y="-241" type="curve" smooth="yes"/>
      <point x="768" y="-242" type="line" smooth="yes"/>
      <point x="768" y="-347"/>
      <point x="837" y="-406"/>
    </contour>
    <component base="U"/>
  </outline>
</glyph>
<glyph name="Schwa" format="2">
  <advance width="1606"/>
  <unicode hex="018F"/>
  <anchor x="803" y="0" name="bottom"/>
  <anchor x="803" y="1278" name="top"/>
  <outline>
    <contour>
      <point x="807" y="-21" type="curve" smooth="yes"/>
      <point x="1239" y="-21"/>
      <point x="1464" y="219"/>
      <point x="1464" y="619" type="curve"/>
      <point x="1464" y="640" type="line"/>
      <point x="1464" y="1057"/>
      <point x="1224" y="1299"/>
      <point x="787" y="1299" type="curve" smooth="yes"/>
      <point x="491" y="1299"/>
      <point x="285" y="1197"/>
      <point x="180" y="1113" type="curve"/>
      <point x="174" y="1070" type="line"/>
      <point x="307" y="1173"/>
      <point x="510" y="1262"/>
      <point x="787" y="1262" type="curve" smooth="yes"/>
      <point x="1198" y="1262"/>
      <point x="1423" y="1036"/>
      <point x="1423" y="640" type="curve" smooth="yes"/>
      <point x="1423" y="619" type="line" smooth="yes"/>
      <point x="1423" y="242"/>
      <point x="1214" y="16"/>
      <point x="807" y="16" type="curve" smooth="yes"/>
      <point x="407" y="16"/>
      <point x="183" y="223"/>
      <point x="180" y="621" type="curve"/>
      <point x="180" y="629" type="line"/>
      <point x="164" y="618" type="line"/>
      <point x="1439" y="618" type="line"/>
      <point x="1439" y="651" type="line"/>
      <point x="144" y="651" type="line"/>
      <point x="142" y="636"/>
      <point x="142" y="624"/>
      <point x="142" y="614" type="curve" smooth="yes"/>
      <point x="142" y="609" type="line" smooth="yes"/>
      <point x="142" y="211"/>
      <point x="380" y="-21"/>
    </contour>
  </outline>
</glyph>
<glyph name="florin" format="2">
  <advance width="1081"/>
  <unicode hex="0192"/>
  <outline>
    <contour>
      <point x="50" y="879" type="line"/>
      <point x="930" y="879" type="line"/>
      <point x="932" y="911" type="line"/>
      <point x="52" y="911" type="line"/>
    </contour>
    <contour>
      <point x="1051" y="1240" type="curve"/>
      <point x="1049" y="1275" type="line"/>
      <point x="959" y="1314"/>
      <point x="829" y="1350"/>
      <point x="677" y="1350" type="curve" smooth="yes"/>
      <point x="423" y="1350"/>
      <point x="308" y="1257"/>
      <point x="289" y="1008" type="curve" smooth="yes"/>
      <point x="188" y="-338" type="line"/>
      <point x="228" y="-338" type="line"/>
      <point x="328" y="1008" type="line" smooth="yes"/>
      <point x="344" y="1227"/>
      <point x="440" y="1316"/>
      <point x="675" y="1316" type="curve" smooth="yes"/>
      <point x="816" y="1316"/>
      <point x="954" y="1283"/>
    </contour>
  </outline>
</glyph>
<glyph name="Oogonek" format="2">
  <advance width="1653"/>
  <unicode hex="01EA"/>
  <anchor x="827" y="0" name="bottom"/>
  <anchor x="827" y="639" name="center"/>
  <anchor x="1062" y="0" name="ogonek"/>
  <anchor x="827" y="1278" name="top"/>
  <anchor x="20" y="1278" name="topleft"/>
  <anchor x="1250" y="1278" name="topright"/>
  <outline>
    <contour>
      <point x="977" y="-406" type="curve" smooth="yes"/>
      <point x="1028" y="-406"/>
      <point x="1086" y="-394"/>
      <point x="1116" y="-376" type="curve"/>
      <point x="1124" y="-340" type="line"/>
      <point x="1076" y="-364"/>
      <point x="1032" y="-372"/>
      <point x="984" y="-372" type="curve" smooth="yes"/>
      <point x="888" y="-372"/>
      <point x="826" y="-333"/>
      <point x="826" y="-240" type="curve" smooth="yes"/>
      <point x="826" y="-238" type="line" smooth="yes"/>
      <point x="826" y="-141"/>
      <point x="908" y="-60"/>
      <point x="1025" y="0" type="curve"/>
      <point x="1025" y="8" type="line"/>
      <point x="975" y="-3" type="line"/>
      <point x="975" y="-3" type="line"/>
      <point x="868" y="-57"/>
      <point x="789" y="-137"/>
      <point x="789" y="-241" type="curve" smooth="yes"/>
      <point x="789" y="-242" type="line" smooth="yes"/>
      <point x="789" y="-347"/>
      <point x="858" y="-406"/>
    </contour>
    <component base="O"/>
  </outline>
</glyph>
<glyph name="oogonek" format="2">
  <advance width="1392"/>
  <unicode hex="01EB"/>
  <anchor x="696" y="0" name="bottom"/>
  <anchor x="696" y="476" name="center"/>
  <anchor x="953" y="0" name="ogonek"/>
  <anchor x="696" y="952" name="top"/>
  <anchor x="1129" y="952" name="topright"/>
  <outline>
    <contour>
      <point x="860" y="-406" type="curve" smooth="yes"/>
      <point x="911" y="-406"/>
      <point x="969" y="-394"/>
      <point x="999" y="-376" type="curve"/>
      <point x="1007" y="-340" type="line"/>
      <point x="959" y="-364"/>
      <point x="915" y="-372"/>
      <point x="867" y="-372" type="curve" smooth="yes"/>
      <point x="771" y="-372"/>
      <point x="709" y="-333"/>
      <point x="709" y="-240" type="curve" smooth="yes"/>
      <point x="709" y="-238" type="line" smooth="yes"/>
      <point x="709" y="-141"/>
      <point x="791" y="-60"/>
      <point x="908" y="0" type="curve"/>
      <point x="908" y="8" type="line"/>
      <point x="858" y="-3" type="line"/>
      <point x="858" y="-3" type="line"/>
      <point x="751" y="-57"/>
      <point x="672" y="-137"/>
      <point x="672" y="-241" type="curve" smooth="yes"/>
      <point x="672" y="-242" type="line" smooth="yes"/>
      <point x="672" y="-347"/>
      <point x="741" y="-406"/>
    </contour>
    <component base="o"/>
  </outline>
</glyph>
<glyph name="Odieresismacron" format="2">
  <advance width="1653"/>
  <unicode hex="022A"/>
  <anchor x="827" y="0" name="bottom"/>
  <anchor x="827" y="639" name="center"/>
  <anchor x="1062" y="0" name="ogonek"/>
  <anchor x="827" y="1604" name="top"/>
  <anchor x="20" y="1278" name="topleft"/>
  <anchor x="1250" y="1278" name="topright"/>
  <outline>
    <contour>
      <point x="505" y="1868" type="line"/>
      <point x="1148" y="1868" type="line"/>
      <point x="1148" y="1900" type="line"/>
      <point x="505" y="1900" type="line"/>
    </contour>
    <component base="O"/>
    <component base="dieresiscomb.case" xOffset="496"/>
  </outline>
</glyph>
<glyph name="odieresismacron" format="2">
  <advance width="1392"/>
  <unicode hex="022B"/>
  <anchor x="697" y="1660" name="top"/>
  <anchor x="696" y="0" name="bottom"/>
  <anchor x="696" y="476" name="center"/>
  <anchor x="953" y="0" name="ogonek"/>
  <anchor x="1129" y="952" name="topright"/>
  <outline>
    <contour>
      <point x="375" y="1595" type="line"/>
      <point x="1018" y="1595" type="line"/>
      <point x="1018" y="1627" type="line"/>
      <point x="375" y="1627" type="line"/>
    </contour>
    <component base="o"/>
    <component base="dieresiscomb" xOffset="365"/>
  </outline>
</glyph>
<glyph name="Otildemacron" format="2">
  <advance width="1653"/>
  <unicode hex="022C"/>
  <anchor x="827" y="1953" name="top"/>
  <anchor x="827" y="0" name="bottom"/>
  <anchor x="827" y="639" name="center"/>
  <anchor x="1062" y="0" name="ogonek"/>
  <anchor x="20" y="1278" name="topleft"/>
  <anchor x="1250" y="1278" name="topright"/>
  <outline>
    <contour>
      <point x="506" y="1898" type="line"/>
      <point x="1149" y="1898" type="line"/>
      <point x="1149" y="1930" type="line"/>
      <point x="506" y="1930" type="line"/>
    </contour>
    <component base="O"/>
    <component base="tildecomb.case" xOffset="409"/>
  </outline>
</glyph>
<glyph name="otildemacron" format="2">
  <advance width="1392"/>
  <unicode hex="022D"/>
  <anchor x="697" y="1650" name="top"/>
  <anchor x="696" y="0" name="bottom"/>
  <anchor x="696" y="476" name="center"/>
  <anchor x="953" y="0" name="ogonek"/>
  <anchor x="1129" y="952" name="topright"/>
  <outline>
    <contour>
      <point x="375" y="1585" type="line"/>
      <point x="1018" y="1585" type="line"/>
      <point x="1018" y="1617" type="line"/>
      <point x="375" y="1617" type="line"/>
    </contour>
    <component base="o"/>
    <component base="tildecomb" xOffset="301"/>
  </outline>
</glyph>
<glyph name="Odotaccentmacron" format="2">
  <advance width="1653"/>
  <unicode hex="0230"/>
  <anchor x="827" y="0" name="bottom"/>
  <anchor x="827" y="639" name="center"/>
  <anchor x="1062" y="0" name="ogonek"/>
  <anchor x="827" y="1654" name="top"/>
  <anchor x="20" y="1278" name="topleft"/>
  <anchor x="1250" y="1278" name="topright"/>
  <outline>
    <contour>
      <point x="505" y="1918" type="line"/>
      <point x="1148" y="1918" type="line"/>
      <point x="1148" y="1950" type="line"/>
      <point x="505" y="1950" type="line"/>
    </contour>
    <component base="O"/>
    <component base="dotaccentcomb.case" xOffset="670"/>
  </outline>
</glyph>
<glyph name="odotaccentmacron" format="2">
  <advance width="1392"/>
  <unicode hex="0231"/>
  <anchor x="697" y="1660" name="top"/>
  <anchor x="696" y="0" name="bottom"/>
  <anchor x="696" y="476" name="center"/>
  <anchor x="953" y="0" name="ogonek"/>
  <anchor x="1129" y="952" name="topright"/>
  <outline>
    <contour>
      <point x="375" y="1595" type="line"/>
      <point x="1018" y="1595" type="line"/>
      <point x="1018" y="1627" type="line"/>
      <point x="375" y="1627" type="line"/>
    </contour>
    <component base="o"/>
    <component base="dotaccentcomb" xOffset="539"/>
  </outline>
</glyph>
<glyph name="jdotless" format="2">
  <advance width="520"/>
  <unicode hex="0237"/>
  <anchor x="260" y="-338" name="bottom"/>
  <anchor x="260" y="952" name="top"/>
  <outline>
    <contour>
      <point x="276" y="172" type="line"/>
      <point x="314" y="172" type="line"/>
      <point x="314" y="952" type="line"/>
      <point x="276" y="952" type="line"/>
    </contour>
    <component base="jbottom"/>
  </outline>
</glyph>
<glyph name="schwa" format="2">
  <advance width="1323"/>
  <unicode hex="0259"/>
  <outline>
    <contour>
      <point x="655" y="-25" type="curve" smooth="yes"/>
      <point x="1002" y="-25"/>
      <point x="1189" y="156"/>
      <point x="1189" y="462" type="curve"/>
      <point x="1189" y="489" type="line"/>
      <point x="1189" y="792"/>
      <point x="999" y="977"/>
      <point x="643" y="977" type="curve" smooth="yes"/>
      <point x="451" y="977"/>
      <point x="294" y="927"/>
      <point x="156" y="833" type="curve"/>
      <point x="151" y="790" type="line"/>
      <point x="305" y="897"/>
      <point x="455" y="943"/>
      <point x="642" y="943" type="curve" smooth="yes"/>
      <point x="973" y="943"/>
      <point x="1151" y="774"/>
      <point x="1151" y="489" type="curve" smooth="yes"/>
      <point x="1151" y="477" type="line"/>
      <point x="1151" y="472" type="line"/>
      <point x="1151" y="462" type="line" smooth="yes"/>
      <point x="1151" y="179"/>
      <point x="977" y="9"/>
      <point x="655" y="9" type="curve" smooth="yes"/>
      <point x="333" y="9"/>
      <point x="161" y="190"/>
      <point x="161" y="445" type="curve" smooth="yes"/>
      <point x="161" y="459"/>
      <point x="161" y="473"/>
      <point x="162" y="484" type="curve"/>
      <point x="126" y="484" type="line"/>
      <point x="124" y="469"/>
      <point x="124" y="457"/>
      <point x="124" y="447" type="curve" smooth="yes"/>
      <point x="124" y="443" type="line" smooth="yes"/>
      <point x="124" y="168"/>
      <point x="309" y="-25"/>
    </contour>
    <contour>
      <point x="139" y="452" type="line"/>
      <point x="1171" y="452" type="line"/>
      <point x="1171" y="484" type="line"/>
      <point x="139" y="484" type="line"/>
    </contour>
  </outline>
</glyph>
<glyph name="primemod" format="2">
  <advance width="377"/>
  <unicode hex="02B9"/>
  <outline>
    <contour>
      <point x="204" y="861" type="line"/>
      <point x="207" y="1323" type="line"/>
      <point x="170" y="1323" type="line"/>
      <point x="174" y="861" type="line"/>
    </contour>
  </outline>
</glyph>
<glyph name="doubleprimemod" format="2">
  <advance width="722"/>
  <unicode hex="02BA"/>
  <outline>
    <contour>
      <point x="519" y="861" type="line"/>
      <point x="549" y="861" type="line"/>
      <point x="552" y="1323" type="line"/>
      <point x="515" y="1323" type="line"/>
    </contour>
    <contour>
      <point x="174" y="861" type="line"/>
      <point x="204" y="861" type="line"/>
      <point x="207" y="1323" type="line"/>
      <point x="170" y="1323" type="line"/>
    </contour>
  </outline>
</glyph>
<glyph name="commaturnedmod" format="2">
  <advance width="327"/>
  <unicode hex="02BB"/>
  <anchor x="164" y="952" name="_top"/>
  <anchor x="164" y="1321" name="top"/>
  <outline>
    <contour>
      <point x="138" y="1114" type="curve"/>
      <point x="175" y="1114" type="line"/>
      <point x="173" y="1137"/>
      <point x="171" y="1162"/>
      <point x="171" y="1188" type="curve" smooth="yes"/>
      <point x="171" y="1296"/>
      <point x="195" y="1377"/>
      <point x="261" y="1462" type="curve"/>
      <point x="239" y="1483" type="line"/>
      <point x="160" y="1392"/>
      <point x="134" y="1302"/>
      <point x="134" y="1187" type="curve" smooth="yes"/>
      <point x="134" y="1158"/>
      <point x="136" y="1134"/>
    </contour>
  </outline>
</glyph>
<glyph name="apostrophemod" format="2">
  <advance width="347"/>
  <unicode hex="02BC"/>
  <outline>
    <contour>
      <point x="240" y="1278" type="curve"/>
      <point x="206" y="1278" type="line"/>
      <point x="211" y="1244"/>
      <point x="214" y="1209"/>
      <point x="214" y="1168" type="curve" smooth="yes"/>
      <point x="214" y="1038"/>
      <point x="186" y="935"/>
      <point x="100" y="833" type="curve"/>
      <point x="122" y="813" type="line"/>
      <point x="216" y="921"/>
      <point x="248" y="1032"/>
      <point x="248" y="1170" type="curve" smooth="yes"/>
      <point x="248" y="1217"/>
      <point x="243" y="1256"/>
    </contour>
  </outline>
</glyph>
<glyph name="ringhalfright" format="2">
  <advance width="387"/>
  <unicode hex="02BE"/>
  <anchor x="100" y="952" name="_top"/>
  <anchor x="100" y="1422" name="top"/>
  <outline>
    <contour>
      <point x="100" y="1414" type="line"/>
      <point x="198" y="1414"/>
      <point x="253" y="1363"/>
      <point x="253" y="1273" type="curve" smooth="yes"/>
      <point x="253" y="1271" type="line" smooth="yes"/>
      <point x="253" y="1181"/>
      <point x="198" y="1130"/>
      <point x="100" y="1130" type="curve"/>
      <point x="100" y="1099" type="line"/>
      <point x="218" y="1099"/>
      <point x="287" y="1164"/>
      <point x="287" y="1271" type="curve" smooth="yes"/>
      <point x="287" y="1273" type="line" smooth="yes"/>
      <point x="287" y="1380"/>
      <point x="218" y="1445"/>
      <point x="100" y="1445" type="curve"/>
    </contour>
  </outline>
</glyph>
<glyph name="ringhalfleft" format="2">
  <advance width="387"/>
  <unicode hex="02BF"/>
  <anchor x="287" y="952" name="_top"/>
  <anchor x="287" y="1422" name="top"/>
  <outline>
    <contour>
      <point x="287" y="1414" type="curve"/>
      <point x="287" y="1445" type="line"/>
      <point x="169" y="1445"/>
      <point x="100" y="1380"/>
      <point x="100" y="1273" type="curve" smooth="yes"/>
      <point x="100" y="1271" type="line" smooth="yes"/>
      <point x="100" y="1164"/>
      <point x="169" y="1099"/>
      <point x="287" y="1099" type="curve"/>
      <point x="287" y="1130" type="line"/>
      <point x="189" y="1130"/>
      <point x="134" y="1181"/>
      <point x="134" y="1271" type="curve" smooth="yes"/>
      <point x="134" y="1273" type="line" smooth="yes"/>
      <point x="134" y="1363"/>
      <point x="189" y="1414"/>
    </contour>
  </outline>
</glyph>
<glyph name="verticallinemod" format="2">
  <advance width="234"/>
  <unicode hex="02C8"/>
  <anchor x="117" y="952" name="_top"/>
  <anchor x="117" y="1425" name="top"/>
  <outline>
    <contour>
      <point x="100" y="1114" type="line"/>
      <point x="134" y="1114" type="line"/>
      <point x="134" y="1483" type="line"/>
      <point x="100" y="1483" type="line"/>
    </contour>
  </outline>
</glyph>
<glyph name="brevecomb" format="2">
  <unicode hex="0306"/>
  <anchor x="385" y="952" name="_top"/>
  <anchor x="385" y="1321" name="top"/>
  <outline>
    <contour>
      <point x="385" y="1101" type="curve" smooth="yes"/>
      <point x="562" y="1101"/>
      <point x="661" y="1193"/>
      <point x="668" y="1377" type="curve"/>
      <point x="634" y="1377" type="line"/>
      <point x="627" y="1212"/>
      <point x="537" y="1133"/>
      <point x="385" y="1133" type="curve" smooth="yes"/>
      <point x="233" y="1133"/>
      <point x="143" y="1212"/>
      <point x="136" y="1377" type="curve"/>
      <point x="102" y="1377" type="line"/>
      <point x="109" y="1193"/>
      <point x="208" y="1101"/>
    </contour>
  </outline>
</glyph>
<glyph name="hookabovecomb" format="2">
  <unicode hex="0309"/>
  <anchor x="294" y="952" name="_top"/>
  <anchor x="294" y="1430" name="top"/>
  <outline>
    <contour>
      <point x="255" y="1105" type="curve"/>
      <point x="248" y="1137" type="line"/>
      <point x="420" y="1168"/>
      <point x="504" y="1216"/>
      <point x="504" y="1313" type="curve" smooth="yes"/>
      <point x="504" y="1393"/>
      <point x="447" y="1430"/>
      <point x="341" y="1430" type="curve" smooth="yes"/>
      <point x="277" y="1430"/>
      <point x="210" y="1412"/>
      <point x="153" y="1385" type="curve"/>
      <point x="158" y="1418" type="line"/>
      <point x="204" y="1443"/>
      <point x="274" y="1463"/>
      <point x="344" y="1463" type="curve" smooth="yes"/>
      <point x="470" y="1463"/>
      <point x="541" y="1412"/>
      <point x="541" y="1314" type="curve" smooth="yes"/>
      <point x="541" y="1200"/>
      <point x="445" y="1137"/>
    </contour>
  </outline>
</glyph>
<glyph name="hungarumlautcomb" format="2">
  <unicode hex="030B"/>
  <anchor x="293" y="952" name="_top"/>
  <anchor x="424" y="1321" name="top"/>
  <outline>
    <contour>
      <point x="652" y="1388" type="line"/>
      <point x="436" y="1114" type="line"/>
      <point x="436" y="1114" type="line"/>
      <point x="479" y="1114" type="line"/>
      <point x="703" y="1388" type="line"/>
      <point x="703" y="1388" type="line"/>
    </contour>
    <contour>
      <point x="315" y="1388" type="line"/>
      <point x="100" y="1114" type="line"/>
      <point x="100" y="1114" type="line"/>
      <point x="142" y="1114" type="line"/>
      <point x="367" y="1388" type="line"/>
      <point x="367" y="1388" type="line"/>
    </contour>
  </outline>
</glyph>
<glyph name="caroncomb" format="2">
  <unicode hex="030C"/>
  <anchor x="412" y="952" name="_top"/>
  <anchor x="412" y="1321" name="top"/>
  <outline>
    <contour>
      <point x="388" y="1114" type="line"/>
      <point x="436" y="1114" type="line"/>
      <point x="724" y="1386" type="line"/>
      <point x="724" y="1388" type="line"/>
      <point x="680" y="1388" type="line"/>
      <point x="415" y="1146" type="line"/>
      <point x="409" y="1146" type="line"/>
      <point x="144" y="1388" type="line"/>
      <point x="100" y="1388" type="line"/>
      <point x="100" y="1386" type="line"/>
    </contour>
  </outline>
</glyph>
<glyph name="dblgravecomb" format="2">
  <unicode hex="030F"/>
  <anchor x="510" y="952" name="_top"/>
  <anchor x="379" y="1321" name="top"/>
  <outline>
    <contour>
      <point x="151" y="1388" type="line"/>
      <point x="100" y="1388" type="line"/>
      <point x="100" y="1388" type="line"/>
      <point x="324" y="1114" type="line"/>
      <point x="367" y="1114" type="line"/>
      <point x="367" y="1114" type="line"/>
    </contour>
    <contour>
      <point x="488" y="1388" type="line"/>
      <point x="436" y="1388" type="line"/>
      <point x="436" y="1388" type="line"/>
      <point x="661" y="1114" type="line"/>
      <point x="703" y="1114" type="line"/>
      <point x="703" y="1114" type="line"/>
    </contour>
  </outline>
</glyph>
<glyph name="breveinvertedcomb" format="2">
  <unicode hex="0311"/>
  <anchor x="385" y="952" name="_top"/>
  <anchor x="385" y="1321" name="top"/>
  <outline>
    <contour>
      <point x="385" y="1400" type="curve" smooth="yes"/>
      <point x="208" y="1400"/>
      <point x="109" y="1308"/>
      <point x="102" y="1124" type="curve"/>
      <point x="136" y="1124" type="line"/>
      <point x="143" y="1289"/>
      <point x="233" y="1368"/>
      <point x="385" y="1368" type="curve" smooth="yes"/>
      <point x="537" y="1368"/>
      <point x="627" y="1289"/>
      <point x="634" y="1124" type="curve"/>
      <point x="668" y="1124" type="line"/>
      <point x="661" y="1308"/>
      <point x="562" y="1400"/>
    </contour>
  </outline>
</glyph>
<glyph name="commaturnedabovecomb" format="2">
  <unicode hex="0312"/>
  <anchor x="164" y="952" name="_top"/>
  <anchor x="164" y="1391" name="top"/>
  <outline>
    <contour>
      <point x="138" y="1114" type="curve"/>
      <point x="175" y="1114" type="line"/>
      <point x="173" y="1137"/>
      <point x="171" y="1162"/>
      <point x="171" y="1188" type="curve" smooth="yes"/>
      <point x="171" y="1296"/>
      <point x="195" y="1377"/>
      <point x="261" y="1462" type="curve"/>
      <point x="239" y="1483" type="line"/>
      <point x="160" y="1392"/>
      <point x="134" y="1302"/>
      <point x="134" y="1187" type="curve" smooth="yes"/>
      <point x="134" y="1158"/>
      <point x="136" y="1134"/>
    </contour>
  </outline>
</glyph>
<glyph name="horncomb" format="2">
  <unicode hex="031B"/>
  <anchor x="311" y="952" name="_topright"/>
  <anchor x="421" y="1227" name="topright"/>
  <outline>
    <contour>
      <point x="111" y="923" type="line"/>
      <point x="309" y="941"/>
      <point x="401" y="1002"/>
      <point x="401" y="1121" type="curve" smooth="yes"/>
      <point x="401" y="1172"/>
      <point x="383" y="1209"/>
      <point x="363" y="1246" type="curve"/>
      <point x="326" y="1246" type="line"/>
      <point x="347" y="1208"/>
      <point x="365" y="1166"/>
      <point x="365" y="1120" type="curve" smooth="yes"/>
      <point x="365" y="1007"/>
      <point x="266" y="967"/>
      <point x="100" y="951" type="curve"/>
    </contour>
  </outline>
</glyph>
<glyph name="dotbelowcomb" format="2">
  <unicode hex="0323"/>
  <anchor x="157" y="0" name="_bottom"/>
  <anchor x="157" y="-344" name="bottom"/>
  <outline>
    <contour>
      <point x="157" y="-344" type="curve" smooth="yes"/>
      <point x="193" y="-344"/>
      <point x="214" y="-327"/>
      <point x="214" y="-293" type="curve" smooth="yes"/>
      <point x="214" y="-289" type="line" smooth="yes"/>
      <point x="214" y="-259"/>
      <point x="193" y="-241"/>
      <point x="157" y="-241" type="curve" smooth="yes"/>
      <point x="122" y="-241"/>
      <point x="100" y="-259"/>
      <point x="100" y="-289" type="curve" smooth="yes"/>
      <point x="100" y="-293" type="line" smooth="yes"/>
      <point x="100" y="-327"/>
      <point x="122" y="-344"/>
    </contour>
  </outline>
</glyph>
<glyph name="commaaccentcomb" format="2">
  <unicode hex="0326"/>
  <anchor x="163.5" y="0" name="_bottom"/>
  <anchor x="163.5" y="-518" name="bottom"/>
  <outline>
    <contour>
      <point x="189" y="-149" type="curve"/>
      <point x="152" y="-149" type="line"/>
      <point x="154" y="-172"/>
      <point x="156" y="-197"/>
      <point x="156" y="-223" type="curve" smooth="yes"/>
      <point x="156" y="-331"/>
      <point x="132" y="-412"/>
      <point x="66" y="-497" type="curve"/>
      <point x="88" y="-518" type="line"/>
      <point x="167" y="-427"/>
      <point x="193" y="-337"/>
      <point x="193" y="-222" type="curve" smooth="yes"/>
      <point x="193" y="-193"/>
      <point x="191" y="-169"/>
    </contour>
  </outline>
</glyph>
<glyph name="strokeshortcomb" format="2">
  <unicode hex="0335"/>
  <anchor x="529" y="659" name="_center"/>
  <outline>
    <contour>
      <point x="100" y="642" type="line"/>
      <point x="958" y="642" type="line"/>
      <point x="958" y="676" type="line"/>
      <point x="100" y="676" type="line"/>
    </contour>
  </outline>
</glyph>
<glyph name="pi" format="2">
  <advance width="1331"/>
  <unicode hex="03C0"/>
  <outline>
    <contour>
      <point x="104" y="888" type="line"/>
      <point x="1222" y="888" type="line"/>
      <point x="1227" y="920" type="line"/>
      <point x="104" y="920" type="line"/>
    </contour>
    <contour>
      <point x="351" y="0" type="line"/>
      <point x="388" y="0" type="line"/>
      <point x="388" y="899" type="line"/>
      <point x="351" y="899" type="line"/>
    </contour>
    <contour>
      <point x="941" y="0" type="line"/>
      <point x="978" y="0" type="line"/>
      <point x="978" y="899" type="line"/>
      <point x="941" y="899" type="line"/>
    </contour>
  </outline>
</glyph>
<glyph name="llinebelow" format="2">
  <advance width="450"/>
  <unicode hex="1E3B"/>
  <anchor x="225.68" y="-286" name="bottom"/>
  <anchor x="225" y="646" name="center"/>
  <anchor x="225" y="1324" name="top"/>
  <anchor x="490" y="1324" name="topright"/>
  <outline>
    <contour>
      <point x="-45" y="-306" type="line"/>
      <point x="495" y="-306" type="line"/>
      <point x="495" y="-274" type="line"/>
      <point x="-45" y="-274" type="line"/>
    </contour>
    <component base="l"/>
  </outline>
</glyph>
<glyph name="Otildedieresis" format="2">
  <advance width="1653"/>
  <unicode hex="1E4E"/>
  <anchor x="827" y="1950" name="top"/>
  <anchor x="827" y="0" name="bottom"/>
  <anchor x="827" y="639" name="center"/>
  <anchor x="1062" y="0" name="ogonek"/>
  <anchor x="20" y="1278" name="topleft"/>
  <anchor x="1250" y="1278" name="topright"/>
  <outline>
    <contour>
      <point x="653" y="1865" type="curve" smooth="yes"/>
      <point x="688" y="1865"/>
      <point x="710" y="1882"/>
      <point x="710" y="1916" type="curve" smooth="yes"/>
      <point x="710" y="1920" type="line" smooth="yes"/>
      <point x="710" y="1950"/>
      <point x="688" y="1968"/>
      <point x="653" y="1968" type="curve" smooth="yes"/>
      <point x="617" y="1968"/>
      <point x="596" y="1950"/>
      <point x="596" y="1920" type="curve" smooth="yes"/>
      <point x="596" y="1916" type="line" smooth="yes"/>
      <point x="596" y="1882"/>
      <point x="617" y="1865"/>
    </contour>
    <contour>
      <point x="1002" y="1865" type="curve" smooth="yes"/>
      <point x="1037" y="1865"/>
      <point x="1058" y="1882"/>
      <point x="1058" y="1916" type="curve" smooth="yes"/>
      <point x="1058" y="1920" type="line" smooth="yes"/>
      <point x="1058" y="1950"/>
      <point x="1037" y="1968"/>
      <point x="1002" y="1968" type="curve" smooth="yes"/>
      <point x="966" y="1968"/>
      <point x="945" y="1950"/>
      <point x="945" y="1920" type="curve" smooth="yes"/>
      <point x="945" y="1916" type="line" smooth="yes"/>
      <point x="945" y="1882"/>
      <point x="966" y="1865"/>
    </contour>
    <component base="O"/>
    <component base="tildecomb.case" xOffset="409"/>
  </outline>
</glyph>
<glyph name="otildedieresis" format="2">
  <advance width="1392"/>
  <unicode hex="1E4F"/>
  <anchor x="696" y="1680" name="top"/>
  <anchor x="696" y="0" name="bottom"/>
  <anchor x="696" y="476" name="center"/>
  <anchor x="953" y="0" name="ogonek"/>
  <anchor x="1129" y="952" name="topright"/>
  <outline>
    <contour>
      <point x="522" y="1552" type="curve" smooth="yes"/>
      <point x="557" y="1552"/>
      <point x="579" y="1569"/>
      <point x="579" y="1603" type="curve" smooth="yes"/>
      <point x="579" y="1607" type="line" smooth="yes"/>
      <point x="579" y="1637"/>
      <point x="557" y="1655"/>
      <point x="522" y="1655" type="curve" smooth="yes"/>
      <point x="486" y="1655"/>
      <point x="465" y="1637"/>
      <point x="465" y="1607" type="curve" smooth="yes"/>
      <point x="465" y="1603" type="line" smooth="yes"/>
      <point x="465" y="1569"/>
      <point x="486" y="1552"/>
    </contour>
    <contour>
      <point x="871" y="1552" type="curve" smooth="yes"/>
      <point x="906" y="1552"/>
      <point x="927" y="1569"/>
      <point x="927" y="1603" type="curve" smooth="yes"/>
      <point x="927" y="1607" type="line" smooth="yes"/>
      <point x="927" y="1637"/>
      <point x="906" y="1655"/>
      <point x="871" y="1655" type="curve" smooth="yes"/>
      <point x="835" y="1655"/>
      <point x="814" y="1637"/>
      <point x="814" y="1607" type="curve" smooth="yes"/>
      <point x="814" y="1603" type="line" smooth="yes"/>
      <point x="814" y="1569"/>
      <point x="835" y="1552"/>
    </contour>
    <component base="o"/>
    <component base="tildecomb" xOffset="301"/>
  </outline>
</glyph>
<glyph name="Sacutedotaccent" format="2">
  <advance width="1452"/>
  <unicode hex="1E64"/>
  <anchor x="723" y="2030" name="top"/>
  <anchor x="723" y="0" name="bottom"/>
  <outline>
    <contour>
      <point x="723" y="1867" type="curve" smooth="yes"/>
      <point x="759" y="1867"/>
      <point x="780" y="1884"/>
      <point x="780" y="1918" type="curve" smooth="yes"/>
      <point x="780" y="1922" type="line" smooth="yes"/>
      <point x="780" y="1952"/>
      <point x="759" y="1970"/>
      <point x="723" y="1970" type="curve" smooth="yes"/>
      <point x="688" y="1970"/>
      <point x="666" y="1952"/>
      <point x="666" y="1922" type="curve" smooth="yes"/>
      <point x="666" y="1918" type="line" smooth="yes"/>
      <point x="666" y="1884"/>
      <point x="688" y="1867"/>
    </contour>
    <component base="S"/>
    <component base="acutecomb.case" xOffset="607"/>
  </outline>
</glyph>
<glyph name="scarondotaccent" format="2">
  <advance width="1199"/>
  <unicode hex="1E67"/>
  <anchor x="600" y="1690" name="top"/>
  <anchor x="600" y="0" name="bottom"/>
  <outline>
    <contour>
      <point x="600" y="1562" type="curve" smooth="yes"/>
      <point x="636" y="1562"/>
      <point x="657" y="1579"/>
      <point x="657" y="1613" type="curve" smooth="yes"/>
      <point x="657" y="1617" type="line" smooth="yes"/>
      <point x="657" y="1647"/>
      <point x="636" y="1665"/>
      <point x="600" y="1665" type="curve" smooth="yes"/>
      <point x="565" y="1665"/>
      <point x="543" y="1647"/>
      <point x="543" y="1617" type="curve" smooth="yes"/>
      <point x="543" y="1613" type="line" smooth="yes"/>
      <point x="543" y="1579"/>
      <point x="565" y="1562"/>
    </contour>
    <component base="s"/>
    <component base="caroncomb" xOffset="188"/>
  </outline>
</glyph>
<glyph name="Ohorntilde" format="2">
  <advance width="1653"/>
  <unicode hex="1EE0"/>
  <anchor x="826.56" y="1634" name="top"/>
  <anchor x="827" y="0" name="bottom"/>
  <anchor x="827" y="639" name="center"/>
  <anchor x="1062" y="0" name="ogonek"/>
  <anchor x="20" y="1278" name="topleft"/>
  <anchor x="1480" y="1553" name="topright"/>
  <outline>
    <contour>
      <point x="997" y="1463" type="curve" smooth="yes"/>
      <point x="1095" y="1463"/>
      <point x="1119" y="1531"/>
      <point x="1119" y="1612" type="curve" smooth="yes"/>
      <point x="1119" y="1652" type="line"/>
      <point x="1090" y="1652" type="line"/>
      <point x="1090" y="1616" type="line" smooth="yes"/>
      <point x="1090" y="1544"/>
      <point x="1065" y="1497"/>
      <point x="1000" y="1497" type="curve" smooth="yes"/>
      <point x="882" y="1497"/>
      <point x="789" y="1642"/>
      <point x="656" y="1642" type="curve" smooth="yes"/>
      <point x="559" y="1642"/>
      <point x="534" y="1572"/>
      <point x="534" y="1491" type="curve" smooth="yes"/>
      <point x="534" y="1453" type="line"/>
      <point x="563" y="1453" type="line"/>
      <point x="563" y="1489" type="line" smooth="yes"/>
      <point x="563" y="1561"/>
      <point x="588" y="1608"/>
      <point x="654" y="1608" type="curve" smooth="yes"/>
      <point x="770" y="1608"/>
      <point x="862" y="1463"/>
    </contour>
    <component base="Ohorn"/>
  </outline>
</glyph>
<glyph name="Uhorntilde" format="2">
  <advance width="1630"/>
  <unicode hex="1EEE"/>
  <anchor x="815" y="1634" name="top"/>
  <anchor x="815" y="0" name="bottom"/>
  <anchor x="1055" y="0" name="ogonek"/>
  <anchor x="1690" y="1553" name="topright"/>
  <outline>
    <contour>
      <point x="1000" y="1463" type="curve" smooth="yes"/>
      <point x="1107" y="1463"/>
      <point x="1133" y="1531"/>
      <point x="1133" y="1612" type="curve" smooth="yes"/>
      <point x="1133" y="1652" type="line"/>
      <point x="1101" y="1652" type="line"/>
      <point x="1101" y="1616" type="line" smooth="yes"/>
      <point x="1101" y="1544"/>
      <point x="1074" y="1497"/>
      <point x="1003" y="1497" type="curve" smooth="yes"/>
      <point x="875" y="1497"/>
      <point x="774" y="1642"/>
      <point x="630" y="1642" type="curve" smooth="yes"/>
      <point x="524" y="1642"/>
      <point x="497" y="1572"/>
      <point x="497" y="1491" type="curve" smooth="yes"/>
      <point x="497" y="1453" type="line"/>
      <point x="529" y="1453" type="line"/>
      <point x="529" y="1489" type="line" smooth="yes"/>
      <point x="529" y="1561"/>
      <point x="556" y="1608"/>
      <point x="627" y="1608" type="curve" smooth="yes"/>
      <point x="753" y="1608"/>
      <point x="854" y="1463"/>
    </contour>
    <component base="Uhorn"/>
  </outline>
</glyph>
<glyph name="dagger" format="2">
  <advance width="1103"/>
  <unicode hex="2020"/>
  <outline>
    <contour>
      <point x="50" y="887" type="line"/>
      <point x="552" y="889" type="line"/>
      <point x="1053" y="887" type="line"/>
      <point x="1053" y="921" type="line"/>
      <point x="552" y="918" type="line"/>
      <point x="50" y="921" type="line"/>
    </contour>
    <contour>
      <point x="532" y="618" type="line"/>
      <point x="532" y="381" type="line"/>
      <point x="537" y="-279" type="line"/>
      <point x="566" y="-279" type="line"/>
      <point x="572" y="381" type="line"/>
      <point x="572" y="618" type="line"/>
      <point x="569" y="902" type="line"/>
      <point x="569" y="904" type="line"/>
      <point x="572" y="1278" type="line"/>
      <point x="532" y="1278" type="line"/>
      <point x="535" y="904" type="line"/>
      <point x="535" y="902" type="line"/>
    </contour>
  </outline>
</glyph>
<glyph name="daggerdbl" format="2">
  <advance width="1123"/>
  <unicode hex="2021"/>
  <outline>
    <contour>
      <point x="60" y="887" type="line"/>
      <point x="562" y="889" type="line"/>
      <point x="1063" y="887" type="line"/>
      <point x="1063" y="921" type="line"/>
      <point x="562" y="918" type="line"/>
      <point x="60" y="921" type="line"/>
    </contour>
    <contour>
      <point x="60" y="112" type="line"/>
      <point x="60" y="78" type="line"/>
      <point x="562" y="81" type="line"/>
      <point x="1063" y="78" type="line"/>
      <point x="1063" y="112" type="line"/>
      <point x="562" y="110" type="line"/>
    </contour>
    <contour>
      <point x="542" y="-279" type="line"/>
      <point x="582" y="-279" type="line"/>
      <point x="579" y="95" type="line"/>
      <point x="579" y="97" type="line"/>
      <point x="582" y="381" type="line"/>
      <point x="582" y="618" type="line"/>
      <point x="579" y="902" type="line"/>
      <point x="579" y="904" type="line"/>
      <point x="582" y="1278" type="line"/>
      <point x="542" y="1278" type="line"/>
      <point x="545" y="904" type="line"/>
      <point x="545" y="902" type="line"/>
      <point x="542" y="618" type="line"/>
      <point x="542" y="381" type="line"/>
      <point x="545" y="97" type="line"/>
      <point x="545" y="95" type="line"/>
    </contour>
  </outline>
</glyph>
<glyph name="perthousand" format="2">
  <advance width="2490"/>
  <unicode hex="2030"/>
  <outline>
    <contour>
      <point x="2063" y="-21" type="curve" smooth="yes"/>
      <point x="2248" y="-21"/>
      <point x="2362" y="94"/>
      <point x="2362" y="281" type="curve"/>
      <point x="2362" y="285" type="line"/>
      <point x="2362" y="472"/>
      <point x="2248" y="587"/>
      <point x="2063" y="587" type="curve" smooth="yes"/>
      <point x="1880" y="587"/>
      <point x="1764" y="472"/>
      <point x="1764" y="285" type="curve"/>
      <point x="1764" y="281" type="line"/>
      <point x="1764" y="94"/>
      <point x="1878" y="-21"/>
    </contour>
    <contour>
      <point x="2063" y="11" type="curve" smooth="yes"/>
      <point x="1903" y="11"/>
      <point x="1800" y="109"/>
      <point x="1800" y="281" type="curve" smooth="yes"/>
      <point x="1800" y="285" type="line" smooth="yes"/>
      <point x="1800" y="457"/>
      <point x="1901" y="555"/>
      <point x="2063" y="555" type="curve" smooth="yes"/>
      <point x="2223" y="555"/>
      <point x="2326" y="457"/>
      <point x="2326" y="285" type="curve" smooth="yes"/>
      <point x="2326" y="281" type="line" smooth="yes"/>
      <point x="2326" y="109"/>
      <point x="2225" y="11"/>
    </contour>
    <component base="percent"/>
  </outline>
</glyph>
<glyph name="minute" format="2">
  <advance width="380"/>
  <unicode hex="2032"/>
  <outline>
    <contour>
      <point x="190" y="822" type="line"/>
      <point x="250" y="1324" type="line"/>
      <point x="209" y="1324" type="line"/>
      <point x="158" y="822" type="line"/>
    </contour>
  </outline>
</glyph>
<glyph name="commercialMinusSign" format="2">
  <advance width="957"/>
  <unicode hex="2052"/>
  <outline>
    <contour>
      <point x="145" y="0" type="line"/>
      <point x="184" y="0" type="line"/>
      <point x="812" y="1278" type="line"/>
      <point x="773" y="1278" type="line"/>
    </contour>
    <component base="period" xOffset="9" yOffset="1198"/>
    <component base="period" xOffset="560"/>
  </outline>
</glyph>
<glyph name="colonsign" format="2">
  <advance width="1530"/>
  <unicode hex="20A1"/>
  <anchor x="825" y="0" name="bottom"/>
  <anchor x="825" y="1278" name="top"/>
  <outline>
    <contour>
      <point x="399" y="-185" type="line"/>
      <point x="437" y="-185" type="line"/>
      <point x="508" y="69" type="line"/>
      <point x="470" y="69" type="line"/>
    </contour>
    <contour>
      <point x="659" y="-185" type="line"/>
      <point x="697" y="-185" type="line"/>
      <point x="748" y="-4" type="line"/>
      <point x="710" y="-4" type="line"/>
    </contour>
    <contour>
      <point x="807" y="1274" type="line"/>
      <point x="845" y="1274" type="line"/>
      <point x="895" y="1454" type="line"/>
      <point x="857" y="1454" type="line"/>
    </contour>
    <contour>
      <point x="1060" y="1250" type="line"/>
      <point x="1098" y="1250" type="line"/>
      <point x="1155" y="1454" type="line"/>
      <point x="1117" y="1454" type="line"/>
    </contour>
    <component base="C"/>
  </outline>
</glyph>
<glyph name="franc" format="2">
  <advance width="1426"/>
  <unicode hex="20A3"/>
  <outline>
    <contour>
      <point x="259" y="0" type="line"/>
      <point x="299" y="0" type="line"/>
      <point x="299" y="1278" type="line"/>
      <point x="259" y="1278" type="line"/>
    </contour>
    <contour>
      <point x="30" y="290" type="line"/>
      <point x="961" y="290" type="line"/>
      <point x="968" y="322" type="line"/>
      <point x="37" y="322" type="line"/>
    </contour>
    <contour>
      <point x="281" y="637" type="line"/>
      <point x="1273" y="637" type="line"/>
      <point x="1273" y="671" type="line"/>
      <point x="281" y="671" type="line"/>
    </contour>
    <contour>
      <point x="281" y="1244" type="line"/>
      <point x="1292" y="1244" type="line"/>
      <point x="1292" y="1278" type="line"/>
      <point x="281" y="1278" type="line"/>
    </contour>
  </outline>
</glyph>
<glyph name="lira" format="2">
  <advance width="1532"/>
  <unicode hex="20A4"/>
  <outline>
    <contour>
      <point x="258" y="34" type="line"/>
      <point x="258" y="38" type="line"/>
      <point x="353" y="76"/>
      <point x="442" y="175"/>
      <point x="442" y="347" type="curve" smooth="yes"/>
      <point x="442" y="590"/>
      <point x="331" y="723"/>
      <point x="331" y="943" type="curve" smooth="yes"/>
      <point x="331" y="1159"/>
      <point x="507" y="1261"/>
      <point x="820" y="1261" type="curve" smooth="yes"/>
      <point x="984" y="1261"/>
      <point x="1147" y="1233"/>
      <point x="1294" y="1178" type="curve"/>
      <point x="1289" y="1220" type="line"/>
      <point x="1160" y="1266"/>
      <point x="994" y="1298"/>
      <point x="822" y="1298" type="curve" smooth="yes"/>
      <point x="464" y="1298"/>
      <point x="291" y="1179"/>
      <point x="291" y="945" type="curve" smooth="yes"/>
      <point x="291" y="702"/>
      <point x="403" y="579"/>
      <point x="402" y="356" type="curve" smooth="yes"/>
      <point x="401" y="180"/>
      <point x="308" y="50"/>
      <point x="142" y="32" type="curve" smooth="yes"/>
      <point x="105" y="28" type="line"/>
      <point x="105" y="0" type="line"/>
      <point x="1412" y="0" type="line"/>
      <point x="1412" y="34" type="line"/>
    </contour>
    <contour>
      <point x="97" y="839" type="line"/>
      <point x="90" y="807" type="line"/>
      <point x="1240" y="807" type="line"/>
      <point x="1247" y="839" type="line"/>
    </contour>
    <contour>
      <point x="97" y="500" type="line"/>
      <point x="90" y="468" type="line"/>
      <point x="1240" y="468" type="line"/>
      <point x="1247" y="500" type="line"/>
    </contour>
  </outline>
</glyph>
<glyph name="naira" format="2">
  <advance width="1703"/>
  <unicode hex="20A6"/>
  <outline>
    <contour>
      <point x="259" y="0" type="line"/>
      <point x="299" y="0" type="line"/>
      <point x="299" y="609" type="line"/>
      <point x="298" y="1246" type="line"/>
      <point x="316" y="1246" type="line"/>
      <point x="816" y="653" type="line"/>
      <point x="864" y="653" type="line"/>
      <point x="337" y="1278" type="line"/>
      <point x="259" y="1278" type="line"/>
    </contour>
    <contour>
      <point x="30" y="636" type="line"/>
      <point x="1666" y="636" type="line"/>
      <point x="1673" y="670" type="line"/>
      <point x="37" y="670" type="line"/>
    </contour>
    <contour>
      <point x="1367" y="0" type="line"/>
      <point x="1445" y="0" type="line"/>
      <point x="1445" y="1278" type="line"/>
      <point x="1405" y="1278" type="line"/>
      <point x="1405" y="586" type="line"/>
      <point x="1406" y="32" type="line"/>
      <point x="1388" y="32" type="line"/>
      <point x="864" y="653" type="line"/>
      <point x="816" y="653" type="line"/>
    </contour>
  </outline>
</glyph>
<glyph name="won" format="2">
  <advance width="2195"/>
  <unicode hex="20A9"/>
  <outline>
    <contour>
      <point x="569" y="0" type="line"/>
      <point x="651" y="0" type="line"/>
      <point x="887" y="654" type="line"/>
      <point x="847" y="654" type="line"/>
      <point x="640" y="85" type="line"/>
      <point x="622" y="34" type="line"/>
      <point x="599" y="34" type="line"/>
      <point x="580" y="85" type="line"/>
      <point x="147" y="1278" type="line"/>
      <point x="104" y="1278" type="line"/>
    </contour>
    <contour>
      <point x="1544" y="0" type="line"/>
      <point x="1626" y="0" type="line"/>
      <point x="2091" y="1278" type="line"/>
      <point x="2049" y="1278" type="line"/>
      <point x="1616" y="87" type="line"/>
      <point x="1597" y="34" type="line"/>
      <point x="1573" y="34" type="line"/>
      <point x="1554" y="86" type="line"/>
      <point x="1348" y="652" type="line"/>
      <point x="1308" y="652" type="line"/>
    </contour>
    <contour>
      <point x="96" y="636" type="line"/>
      <point x="2078" y="636" type="line"/>
      <point x="2085" y="670" type="line"/>
      <point x="103" y="670" type="line"/>
    </contour>
    <contour>
      <point x="1059" y="1239" type="line"/>
      <point x="847" y="654" type="line"/>
      <point x="887" y="654" type="line"/>
      <point x="954" y="838" type="line"/>
      <point x="1087" y="1206" type="line"/>
      <point x="1108" y="1206" type="line"/>
      <point x="1241" y="838" type="line"/>
      <point x="1308" y="652" type="line"/>
      <point x="1348" y="652" type="line"/>
      <point x="1134" y="1239" type="line"/>
    </contour>
  </outline>
</glyph>
<glyph name="uni20AA" format="2">
  <advance width="1748"/>
  <unicode hex="20AA"/>
  <outline>
    <contour>
      <point x="659" y="0" type="line"/>
      <point x="1207" y="0" type="line" smooth="yes"/>
      <point x="1423" y="0"/>
      <point x="1512" y="103"/>
      <point x="1512" y="304" type="curve" smooth="yes"/>
      <point x="1512" y="1090" type="line"/>
      <point x="1475" y="1090" type="line"/>
      <point x="1475" y="304" type="line" smooth="yes"/>
      <point x="1475" y="126"/>
      <point x="1397" y="33"/>
      <point x="1207" y="33" type="curve" smooth="yes"/>
      <point x="696" y="33" type="line"/>
      <point x="696" y="750" type="line"/>
      <point x="659" y="750" type="line"/>
    </contour>
    <contour>
      <point x="236" y="1090" type="line"/>
      <point x="236" y="0" type="line"/>
      <point x="273" y="0" type="line"/>
      <point x="273" y="1057" type="line"/>
      <point x="800" y="1057" type="line" smooth="yes"/>
      <point x="990" y="1057"/>
      <point x="1068" y="964"/>
      <point x="1068" y="786" type="curve" smooth="yes"/>
      <point x="1068" y="340" type="line"/>
      <point x="1105" y="340" type="line"/>
      <point x="1105" y="786" type="line" smooth="yes"/>
      <point x="1105" y="987"/>
      <point x="1016" y="1090"/>
      <point x="800" y="1090" type="curve" smooth="yes"/>
    </contour>
  </outline>
</glyph>
<glyph name="dong" format="2">
  <advance width="1441"/>
  <unicode hex="20AB"/>
  <anchor x="722.137" y="-286" name="bottom"/>
  <anchor x="721" y="476" name="center"/>
  <anchor x="721" y="1324" name="top"/>
  <anchor x="1485" y="1324" name="topright"/>
  <outline>
    <contour>
      <point x="198" y="-306" type="line"/>
      <point x="1244" y="-306" type="line"/>
      <point x="1244" y="-274" type="line"/>
      <point x="198" y="-274" type="line"/>
    </contour>
    <component base="dcroat"/>
  </outline>
</glyph>
<glyph name="kip" format="2">
  <advance width="1528"/>
  <unicode hex="20AD"/>
  <anchor x="775" y="0" name="bottom"/>
  <anchor x="775" y="1278" name="top"/>
  <outline>
    <contour>
      <point x="605" y="670" type="line"/>
      <point x="598" y="636" type="line"/>
      <point x="1282" y="636" type="line"/>
      <point x="1289" y="670" type="line"/>
    </contour>
    <contour>
      <point x="276" y="636" type="line"/>
      <point x="283" y="670" type="line"/>
      <point x="37" y="670" type="line"/>
      <point x="30" y="636" type="line"/>
    </contour>
    <component base="K" xOffset="22"/>
  </outline>
</glyph>
<glyph name="uni20AE" format="2">
  <advance width="1460"/>
  <unicode hex="20AE"/>
  <anchor x="730" y="0" name="bottom"/>
  <anchor x="730" y="639" name="center"/>
  <anchor x="730" y="1278" name="top"/>
  <outline>
    <contour>
      <point x="1179" y="945" type="line"/>
      <point x="282" y="668" type="line"/>
      <point x="282" y="634" type="line"/>
      <point x="1179" y="911" type="line"/>
    </contour>
    <contour>
      <point x="1179" y="606" type="line"/>
      <point x="282" y="329" type="line"/>
      <point x="282" y="295" type="line"/>
      <point x="1179" y="572" type="line"/>
    </contour>
    <component base="T"/>
  </outline>
</glyph>
<glyph name="peso" format="2">
  <advance width="1678"/>
  <unicode hex="20B1"/>
  <outline>
    <contour>
      <point x="299" y="404" type="line"/>
      <point x="988" y="404" type="line" smooth="yes"/>
      <point x="1283" y="404"/>
      <point x="1420" y="576"/>
      <point x="1420" y="830" type="curve" smooth="yes"/>
      <point x="1420" y="853" type="line" smooth="yes"/>
      <point x="1420" y="1107"/>
      <point x="1283" y="1278"/>
      <point x="988" y="1278" type="curve" smooth="yes"/>
      <point x="288" y="1278" type="line"/>
      <point x="288" y="1244" type="line"/>
      <point x="986" y="1244" type="line" smooth="yes"/>
      <point x="1261" y="1244"/>
      <point x="1380" y="1089"/>
      <point x="1380" y="851" type="curve" smooth="yes"/>
      <point x="1380" y="831" type="line" smooth="yes"/>
      <point x="1380" y="593"/>
      <point x="1261" y="438"/>
      <point x="986" y="438" type="curve" smooth="yes"/>
      <point x="299" y="438" type="line"/>
    </contour>
    <contour>
      <point x="40" y="669" type="line"/>
      <point x="290" y="669" type="line"/>
      <point x="290" y="701" type="line"/>
      <point x="47" y="701" type="line"/>
    </contour>
    <contour>
      <point x="269" y="0" type="line"/>
      <point x="309" y="0" type="line"/>
      <point x="309" y="412" type="line"/>
      <point x="309" y="428" type="line"/>
      <point x="309" y="1278" type="line"/>
      <point x="269" y="1278" type="line"/>
    </contour>
    <contour>
      <point x="40" y="981" type="line"/>
      <point x="290" y="981" type="line"/>
      <point x="290" y="1013" type="line"/>
      <point x="47" y="1013" type="line"/>
    </contour>
    <contour>
      <point x="1382" y="669" type="line"/>
      <point x="1641" y="669" type="line"/>
      <point x="1648" y="701" type="line"/>
      <point x="1382" y="701" type="line"/>
    </contour>
    <contour>
      <point x="1382" y="981" type="line"/>
      <point x="1641" y="981" type="line"/>
      <point x="1648" y="1013" type="line"/>
      <point x="1382" y="1013" type="line"/>
    </contour>
  </outline>
</glyph>
<glyph name="guarani" format="2">
  <advance width="1672"/>
  <unicode hex="20B2"/>
  <outline>
    <contour>
      <point x="844" y="1278" type="line"/>
      <point x="844" y="1541" type="line"/>
      <point x="808" y="1541" type="line"/>
      <point x="808" y="1278" type="line"/>
    </contour>
    <contour>
      <point x="844" y="-274" type="line"/>
      <point x="844" y="0" type="line"/>
      <point x="808" y="0" type="line"/>
      <point x="808" y="-274" type="line"/>
    </contour>
    <contour>
      <point x="841" y="-21" type="curve" smooth="yes"/>
      <point x="1159" y="-21"/>
      <point x="1356" y="81"/>
      <point x="1464" y="186" type="curve"/>
      <point x="1464" y="661" type="line"/>
      <point x="831" y="661" type="line"/>
      <point x="831" y="628" type="line"/>
      <point x="1442" y="628" type="line"/>
      <point x="1426" y="651" type="line"/>
      <point x="1426" y="200" type="line"/>
      <point x="1348" y="124"/>
      <point x="1153" y="16"/>
      <point x="843" y="16" type="curve" smooth="yes"/>
      <point x="417" y="16"/>
      <point x="183" y="236"/>
      <point x="183" y="629" type="curve" smooth="yes"/>
      <point x="183" y="650" type="line" smooth="yes"/>
      <point x="183" y="1040"/>
      <point x="415" y="1262"/>
      <point x="837" y="1262" type="curve" smooth="yes"/>
      <point x="1107" y="1262"/>
      <point x="1303" y="1175"/>
      <point x="1432" y="1080" type="curve"/>
      <point x="1426" y="1123" type="line"/>
      <point x="1324" y="1200"/>
      <point x="1125" y="1299"/>
      <point x="839" y="1299" type="curve" smooth="yes"/>
      <point x="389" y="1299"/>
      <point x="142" y="1061"/>
      <point x="142" y="650" type="curve"/>
      <point x="142" y="629" type="line"/>
      <point x="142" y="213"/>
      <point x="392" y="-21"/>
    </contour>
  </outline>
</glyph>
<glyph name="cedi" format="2">
  <advance width="1530"/>
  <unicode hex="20B5"/>
  <anchor x="825" y="0" name="bottom"/>
  <anchor x="825" y="1278" name="top"/>
  <outline>
    <contour>
      <point x="805" y="-270" type="line"/>
      <point x="841" y="-270" type="line"/>
      <point x="841" y="1" type="line"/>
      <point x="805" y="1" type="line"/>
    </contour>
    <contour>
      <point x="805" y="1282" type="line"/>
      <point x="841" y="1282" type="line"/>
      <point x="841" y="1545" type="line"/>
      <point x="805" y="1545" type="line"/>
    </contour>
    <component base="C"/>
  </outline>
</glyph>
<glyph name="liraTurkish" format="2">
  <advance width="1578"/>
  <unicode hex="20BA"/>
  <outline>
    <contour>
      <point x="268" y="0" type="line"/>
      <point x="470" y="0" type="line" smooth="yes"/>
      <point x="1125" y="0"/>
      <point x="1407" y="233"/>
      <point x="1408" y="647" type="curve"/>
      <point x="1408" y="650" type="line"/>
      <point x="1368" y="650" type="line"/>
      <point x="1368" y="647" type="line"/>
      <point x="1367" y="257"/>
      <point x="1094" y="34"/>
      <point x="481" y="34" type="curve" smooth="yes"/>
      <point x="308" y="34" type="line"/>
      <point x="308" y="1278" type="line"/>
      <point x="268" y="1278" type="line"/>
    </contour>
    <contour>
      <point x="937" y="1140" type="line"/>
      <point x="40" y="863" type="line"/>
      <point x="40" y="829" type="line"/>
      <point x="937" y="1106" type="line"/>
    </contour>
    <contour>
      <point x="937" y="801" type="line"/>
      <point x="40" y="524" type="line"/>
      <point x="40" y="490" type="line"/>
      <point x="937" y="767" type="line"/>
    </contour>
  </outline>
</glyph>
<glyph name="manat" format="2">
  <advance width="1930"/>
  <unicode hex="20BC"/>
  <outline>
    <contour>
      <point x="965" y="1299" type="curve" smooth="yes"/>
      <point x="485" y="1299"/>
      <point x="222" y="1074"/>
      <point x="222" y="669" type="curve" smooth="yes"/>
      <point x="222" y="0" type="line"/>
      <point x="262" y="0" type="line"/>
      <point x="262" y="667" type="line"/>
      <point x="262" y="1049"/>
      <point x="508" y="1262"/>
      <point x="965" y="1262" type="curve" smooth="yes"/>
      <point x="1422" y="1262"/>
      <point x="1668" y="1049"/>
      <point x="1668" y="667" type="curve" smooth="yes"/>
      <point x="1668" y="0" type="line"/>
      <point x="1708" y="0" type="line"/>
      <point x="1708" y="669" type="line"/>
      <point x="1708" y="1074"/>
      <point x="1445" y="1299"/>
    </contour>
    <contour>
      <point x="983" y="0" type="line"/>
      <point x="983" y="1545" type="line"/>
      <point x="947" y="1545" type="line"/>
      <point x="947" y="0" type="line"/>
    </contour>
  </outline>
</glyph>
<glyph name="ruble" format="2">
  <advance width="1543"/>
  <unicode hex="20BD"/>
  <outline>
    <contour>
      <point x="298" y="564" type="line"/>
      <point x="1007" y="564" type="line" smooth="yes"/>
      <point x="1288" y="564"/>
      <point x="1419" y="704"/>
      <point x="1419" y="910" type="curve" smooth="yes"/>
      <point x="1419" y="933" type="line" smooth="yes"/>
      <point x="1419" y="1139"/>
      <point x="1288" y="1278"/>
      <point x="1007" y="1278" type="curve" smooth="yes"/>
      <point x="287" y="1278" type="line"/>
      <point x="287" y="1244" type="line"/>
      <point x="1005" y="1244" type="line" smooth="yes"/>
      <point x="1266" y="1244"/>
      <point x="1379" y="1121"/>
      <point x="1379" y="931" type="curve" smooth="yes"/>
      <point x="1379" y="911" type="line" smooth="yes"/>
      <point x="1379" y="721"/>
      <point x="1266" y="598"/>
      <point x="1005" y="598" type="curve" smooth="yes"/>
      <point x="298" y="598" type="line"/>
    </contour>
    <contour>
      <point x="40" y="247" type="line"/>
      <point x="1010" y="247" type="line"/>
      <point x="1017" y="279" type="line"/>
      <point x="47" y="279" type="line"/>
    </contour>
    <contour>
      <point x="40" y="564" type="line"/>
      <point x="287" y="564" type="line"/>
      <point x="287" y="596" type="line"/>
      <point x="47" y="596" type="line"/>
    </contour>
    <contour>
      <point x="268" y="0" type="line"/>
      <point x="308" y="0" type="line"/>
      <point x="308" y="572" type="line"/>
      <point x="308" y="588" type="line"/>
      <point x="308" y="1278" type="line"/>
      <point x="268" y="1278" type="line"/>
    </contour>
  </outline>
</glyph>
<glyph name="literSign" format="2">
  <advance width="979"/>
  <unicode hex="2113"/>
  <outline>
    <contour>
      <point x="208" y="342" type="curve"/>
      <point x="208" y="302" type="line"/>
      <point x="636" y="499"/>
      <point x="859" y="661"/>
      <point x="859" y="953" type="curve" smooth="yes"/>
      <point x="859" y="984" type="line" smooth="yes"/>
      <point x="859" y="1177"/>
      <point x="758" y="1334"/>
      <point x="529" y="1334" type="curve" smooth="yes"/>
      <point x="298" y="1334"/>
      <point x="185" y="1197"/>
      <point x="185" y="940" type="curve" smooth="yes"/>
      <point x="185" y="475" type="line"/>
      <point x="222" y="475" type="line"/>
      <point x="222" y="940" type="line" smooth="yes"/>
      <point x="222" y="1174"/>
      <point x="322" y="1300"/>
      <point x="529" y="1300" type="curve" smooth="yes"/>
      <point x="737" y="1300"/>
      <point x="822" y="1159"/>
      <point x="822" y="983" type="curve" smooth="yes"/>
      <point x="822" y="954" type="line" smooth="yes"/>
      <point x="822" y="673"/>
      <point x="608" y="527"/>
    </contour>
    <contour>
      <point x="208" y="302" type="curve"/>
      <point x="208" y="343" type="line"/>
      <point x="147" y="315"/>
      <point x="83" y="287"/>
      <point x="18" y="260" type="curve"/>
      <point x="18" y="218" type="line"/>
      <point x="84" y="245"/>
      <point x="147" y="275"/>
    </contour>
    <contour>
      <point x="549" y="-25" type="curve" smooth="yes"/>
      <point x="656" y="-25"/>
      <point x="758" y="5"/>
      <point x="846" y="62" type="curve"/>
      <point x="851" y="103" type="line"/>
      <point x="759" y="41"/>
      <point x="656" y="9"/>
      <point x="549" y="9" type="curve" smooth="yes"/>
      <point x="309" y="9"/>
      <point x="222" y="138"/>
      <point x="222" y="379" type="curve" smooth="yes"/>
      <point x="222" y="609" type="line"/>
      <point x="185" y="609" type="line"/>
      <point x="185" y="379" type="line" smooth="yes"/>
      <point x="185" y="111"/>
      <point x="291" y="-25"/>
    </contour>
  </outline>
</glyph>
<glyph name="numero" format="2">
  <advance width="2562"/>
  <unicode hex="2116"/>
  <anchor x="829" y="0" name="bottom"/>
  <anchor x="829" y="1278" name="top"/>
  <outline>
    <contour>
      <point x="1745" y="399" type="line"/>
      <point x="2434" y="399" type="line"/>
      <point x="2434" y="431" type="line"/>
      <point x="1745" y="431" type="line"/>
    </contour>
    <contour>
      <point x="2090" y="619" type="curve" smooth="yes"/>
      <point x="2317" y="619"/>
      <point x="2447" y="729"/>
      <point x="2447" y="938" type="curve"/>
      <point x="2447" y="963" type="line"/>
      <point x="2447" y="1171"/>
      <point x="2318" y="1281"/>
      <point x="2090" y="1281" type="curve" smooth="yes"/>
      <point x="1862" y="1281"/>
      <point x="1732" y="1171"/>
      <point x="1732" y="963" type="curve"/>
      <point x="1732" y="938" type="line"/>
      <point x="1732" y="730"/>
      <point x="1861" y="619"/>
    </contour>
    <contour>
      <point x="2090" y="650" type="curve" smooth="yes"/>
      <point x="1884" y="650"/>
      <point x="1767" y="751"/>
      <point x="1767" y="938" type="curve" smooth="yes"/>
      <point x="1767" y="963" type="line" smooth="yes"/>
      <point x="1767" y="1150"/>
      <point x="1884" y="1250"/>
      <point x="2090" y="1250" type="curve" smooth="yes"/>
      <point x="2296" y="1250"/>
      <point x="2412" y="1150"/>
      <point x="2412" y="963" type="curve" smooth="yes"/>
      <point x="2412" y="938" type="line" smooth="yes"/>
      <point x="2412" y="751"/>
      <point x="2294" y="650"/>
    </contour>
    <component base="N"/>
  </outline>
</glyph>
<glyph name="Ohm" format="2">
  <advance width="1714"/>
  <unicode hex="2126"/>
  <outline>
    <contour>
      <point x="857" y="1299" type="curve" smooth="yes"/>
      <point x="410" y="1299"/>
      <point x="162" y="1029"/>
      <point x="162" y="660" type="curve" smooth="yes"/>
      <point x="162" y="639" type="line" smooth="yes"/>
      <point x="162" y="320"/>
      <point x="350" y="87"/>
      <point x="668" y="22" type="curve"/>
      <point x="675" y="29" type="line"/>
      <point x="104" y="35" type="line"/>
      <point x="104" y="0" type="line"/>
      <point x="696" y="0" type="line"/>
      <point x="696" y="34" type="line"/>
      <point x="397" y="111"/>
      <point x="203" y="313"/>
      <point x="203" y="639" type="curve" smooth="yes"/>
      <point x="203" y="660" type="line" smooth="yes"/>
      <point x="203" y="1007"/>
      <point x="433" y="1262"/>
      <point x="857" y="1262" type="curve" smooth="yes"/>
      <point x="1281" y="1262"/>
      <point x="1511" y="1007"/>
      <point x="1511" y="660" type="curve" smooth="yes"/>
      <point x="1511" y="639" type="line" smooth="yes"/>
      <point x="1511" y="313"/>
      <point x="1317" y="111"/>
      <point x="1018" y="34" type="curve"/>
      <point x="1018" y="0" type="line"/>
      <point x="1610" y="0" type="line"/>
      <point x="1610" y="35" type="line"/>
      <point x="1039" y="29" type="line"/>
      <point x="1046" y="22" type="line"/>
      <point x="1364" y="87"/>
      <point x="1552" y="320"/>
      <point x="1552" y="639" type="curve" smooth="yes"/>
      <point x="1552" y="660" type="line" smooth="yes"/>
      <point x="1552" y="1029"/>
      <point x="1304" y="1299"/>
    </contour>
  </outline>
</glyph>
<glyph name="estimated" format="2">
  <advance width="1659"/>
  <unicode hex="212E"/>
  <outline>
    <contour>
      <point x="404" y="581" type="curve"/>
      <point x="1517" y="581" type="line"/>
      <point x="1517" y="606" type="line" smooth="yes"/>
      <point x="1517" y="979"/>
      <point x="1241" y="1227"/>
      <point x="828" y="1227" type="curve" smooth="yes"/>
      <point x="416" y="1227"/>
      <point x="142" y="979"/>
      <point x="142" y="606" type="curve" smooth="yes"/>
      <point x="142" y="226"/>
      <point x="416" y="-10"/>
      <point x="828" y="-10" type="curve" smooth="yes"/>
      <point x="1042" y="-10"/>
      <point x="1251" y="86"/>
      <point x="1375" y="230" type="curve"/>
      <point x="1274" y="230" type="line"/>
      <point x="1165" y="116"/>
      <point x="1011" y="46"/>
      <point x="831" y="46" type="curve" smooth="yes"/>
      <point x="653" y="46"/>
      <point x="515" y="97"/>
      <point x="412" y="204" type="curve" smooth="yes"/>
      <point x="399" y="218"/>
      <point x="393" y="231"/>
      <point x="393" y="244" type="curve" smooth="yes"/>
      <point x="393" y="574" type="line" smooth="yes"/>
      <point x="393" y="579"/>
      <point x="397" y="581"/>
    </contour>
    <contour>
      <point x="1267" y="983" type="curve"/>
      <point x="1267" y="647" type="line" smooth="yes"/>
      <point x="1267" y="640"/>
      <point x="1264" y="637"/>
      <point x="1257" y="637" type="curve" smooth="yes"/>
      <point x="404" y="637" type="line" smooth="yes"/>
      <point x="397" y="637"/>
      <point x="393" y="640"/>
      <point x="393" y="647" type="curve" smooth="yes"/>
      <point x="393" y="976" type="line" smooth="yes"/>
      <point x="393" y="990"/>
      <point x="400" y="1007"/>
      <point x="412" y="1020" type="curve" smooth="yes"/>
      <point x="494" y="1104"/>
      <point x="663" y="1178"/>
      <point x="831" y="1178" type="curve" smooth="yes"/>
      <point x="996" y="1178"/>
      <point x="1151" y="1129"/>
      <point x="1247" y="1025" type="curve" smooth="yes"/>
      <point x="1260" y="1011"/>
      <point x="1267" y="998"/>
    </contour>
  </outline>
</glyph>
<glyph name="partialdiff" format="2">
  <advance width="1435"/>
  <unicode hex="2202"/>
  <outline>
    <contour>
      <point x="381" y="1245" type="curve"/>
      <point x="374" y="1205" type="line"/>
      <point x="464" y="1239"/>
      <point x="567" y="1260"/>
      <point x="716" y="1260" type="curve" smooth="yes"/>
      <point x="1070" y="1260"/>
      <point x="1246" y="1052"/>
      <point x="1246" y="698" type="curve"/>
      <point x="1246" y="692"/>
      <point x="1246" y="686"/>
      <point x="1246" y="680" type="curve"/>
      <point x="1246" y="262"/>
      <point x="1040" y="21"/>
      <point x="635" y="21" type="curve" smooth="yes"/>
      <point x="336" y="21"/>
      <point x="171" y="154"/>
      <point x="171" y="382" type="curve"/>
      <point x="171" y="386"/>
      <point x="171" y="390"/>
      <point x="171" y="394" type="curve"/>
      <point x="171" y="652"/>
      <point x="363" y="769"/>
      <point x="647" y="769" type="curve" smooth="yes"/>
      <point x="964" y="769"/>
      <point x="1150" y="594"/>
      <point x="1213" y="377" type="curve"/>
      <point x="1235" y="409" type="line"/>
      <point x="1226" y="409" type="line"/>
      <point x="1171" y="610"/>
      <point x="987" y="804"/>
      <point x="647" y="804" type="curve" smooth="yes"/>
      <point x="339" y="804"/>
      <point x="132" y="676"/>
      <point x="132" y="387" type="curve"/>
      <point x="132" y="383"/>
      <point x="132" y="379"/>
      <point x="132" y="375" type="curve"/>
      <point x="133" y="131"/>
      <point x="320" y="-16"/>
      <point x="633" y="-16" type="curve" smooth="yes"/>
      <point x="1059" y="-16"/>
      <point x="1285" y="240"/>
      <point x="1285" y="683" type="curve"/>
      <point x="1285" y="689"/>
      <point x="1285" y="694"/>
      <point x="1285" y="700" type="curve"/>
      <point x="1285" y="1075"/>
      <point x="1094" y="1297"/>
      <point x="718" y="1297" type="curve" smooth="yes"/>
      <point x="572" y="1297"/>
      <point x="464" y="1274"/>
    </contour>
  </outline>
</glyph>
<glyph name="emptyset" format="2">
  <advance width="1368"/>
  <unicode hex="2205"/>
  <outline>
    <contour>
      <point x="219" y="-98" type="line"/>
      <point x="262" y="-98" type="line"/>
      <point x="1160" y="1131" type="line"/>
      <point x="1117" y="1131" type="line"/>
    </contour>
    <contour>
      <point x="685" y="-25" type="curve" smooth="yes"/>
      <point x="1010" y="-25"/>
      <point x="1226" y="191"/>
      <point x="1226" y="514" type="curve"/>
      <point x="1226" y="542" type="line"/>
      <point x="1226" y="852"/>
      <point x="1010" y="1058"/>
      <point x="685" y="1058" type="curve" smooth="yes"/>
      <point x="359" y="1058"/>
      <point x="142" y="852"/>
      <point x="142" y="542" type="curve"/>
      <point x="142" y="514" type="line"/>
      <point x="142" y="191"/>
      <point x="359" y="-25"/>
    </contour>
    <contour>
      <point x="685" y="10" type="curve" smooth="yes"/>
      <point x="382" y="10"/>
      <point x="180" y="212"/>
      <point x="180" y="514" type="curve" smooth="yes"/>
      <point x="180" y="542" type="line" smooth="yes"/>
      <point x="180" y="831"/>
      <point x="382" y="1024"/>
      <point x="685" y="1024" type="curve" smooth="yes"/>
      <point x="987" y="1024"/>
      <point x="1188" y="831"/>
      <point x="1188" y="542" type="curve" smooth="yes"/>
      <point x="1188" y="514" type="line" smooth="yes"/>
      <point x="1188" y="212"/>
      <point x="987" y="10"/>
    </contour>
  </outline>
</glyph>
<glyph name="increment" format="2">
  <advance width="1645"/>
  <unicode hex="2206"/>
  <outline>
    <contour>
      <point x="1503" y="20" type="line"/>
      <point x="1541" y="29" type="line"/>
      <point x="845" y="1278" type="line"/>
      <point x="805" y="1278" type="line"/>
    </contour>
    <contour>
      <point x="104" y="29" type="line"/>
      <point x="104" y="0" type="line"/>
      <point x="931" y="0" type="line"/>
      <point x="931" y="34" type="line"/>
      <point x="123" y="34" type="line"/>
    </contour>
    <contour>
      <point x="142" y="20" type="line"/>
      <point x="840" y="1278" type="line"/>
      <point x="800" y="1278" type="line"/>
      <point x="104" y="29" type="line"/>
    </contour>
    <contour>
      <point x="1541" y="29" type="line"/>
      <point x="1522" y="34" type="line"/>
      <point x="714" y="34" type="line"/>
      <point x="714" y="0" type="line"/>
      <point x="1541" y="0" type="line"/>
    </contour>
  </outline>
</glyph>
<glyph name="product" format="2">
  <advance width="1468"/>
  <unicode hex="220F"/>
  <outline>
    <contour>
      <point x="1232" y="-185" type="line"/>
      <point x="1232" y="1278" type="line"/>
      <point x="236" y="1278" type="line"/>
      <point x="236" y="-185" type="line"/>
      <point x="276" y="-185" type="line"/>
      <point x="276" y="1263" type="line"/>
      <point x="255" y="1244" type="line"/>
      <point x="1207" y="1244" type="line"/>
      <point x="1192" y="1258" type="line"/>
      <point x="1192" y="-185" type="line"/>
    </contour>
  </outline>
</glyph>
<glyph name="summation" format="2">
  <advance width="1298"/>
  <unicode hex="2211"/>
  <outline>
    <contour>
      <point x="104" y="1244" type="line"/>
      <point x="124" y="1244" type="line"/>
      <point x="1164" y="1244" type="line"/>
      <point x="1164" y="1278" type="line"/>
      <point x="104" y="1278" type="line"/>
    </contour>
    <contour>
      <point x="104" y="-185" type="line"/>
      <point x="1164" y="-185" type="line"/>
      <point x="1164" y="-151" type="line"/>
      <point x="124" y="-151" type="line"/>
      <point x="104" y="-151" type="line"/>
    </contour>
    <contour>
      <point x="736" y="548" type="line"/>
      <point x="736" y="542" type="line"/>
      <point x="104" y="-151" type="line"/>
      <point x="124" y="-175" type="line"/>
      <point x="768" y="524" type="line"/>
      <point x="768" y="566" type="line"/>
      <point x="124" y="1267" type="line"/>
      <point x="104" y="1243" type="line"/>
    </contour>
  </outline>
</glyph>
<glyph name="radical" format="2">
  <advance width="1231"/>
  <unicode hex="221A"/>
  <outline>
    <contour>
      <point x="441" y="-221" type="line"/>
      <point x="485" y="-221" type="line"/>
      <point x="1231" y="1317" type="line"/>
      <point x="1187" y="1317" type="line"/>
    </contour>
    <contour>
      <point x="403" y="-221" type="line"/>
      <point x="481" y="-221" type="line"/>
      <point x="458" y="-189" type="line"/>
      <point x="426" y="-189" type="line"/>
      <point x="132" y="339" type="line"/>
      <point x="89" y="339" type="line"/>
    </contour>
  </outline>
</glyph>
<glyph name="infinity" format="2">
  <advance width="2147"/>
  <unicode hex="221E"/>
  <outline>
    <contour>
      <point x="134" y="473" type="line"/>
      <point x="134" y="212"/>
      <point x="292" y="57"/>
      <point x="548" y="57" type="curve" smooth="yes"/>
      <point x="799" y="57"/>
      <point x="959" y="218"/>
      <point x="1072" y="428" type="curve"/>
      <point x="1076" y="428" type="line"/>
      <point x="1076" y="518" type="line"/>
      <point x="1072" y="518" type="line"/>
      <point x="959" y="715"/>
      <point x="799" y="891"/>
      <point x="548" y="891" type="curve" smooth="yes"/>
      <point x="293" y="891"/>
      <point x="135" y="737"/>
      <point x="134" y="476" type="curve"/>
    </contour>
    <contour>
      <point x="172" y="473" type="curve"/>
      <point x="172" y="476" type="line"/>
      <point x="173" y="714"/>
      <point x="316" y="856"/>
      <point x="546" y="856" type="curve" smooth="yes"/>
      <point x="804" y="856"/>
      <point x="941" y="676"/>
      <point x="1056" y="473" type="curve"/>
      <point x="941" y="264"/>
      <point x="806" y="91"/>
      <point x="546" y="91" type="curve" smooth="yes"/>
      <point x="315" y="91"/>
      <point x="172" y="233"/>
    </contour>
    <contour>
      <point x="2013" y="473" type="curve"/>
      <point x="2013" y="476" type="line"/>
      <point x="2012" y="736"/>
      <point x="1854" y="891"/>
      <point x="1599" y="891" type="curve" smooth="yes"/>
      <point x="1348" y="891"/>
      <point x="1188" y="715"/>
      <point x="1075" y="518" type="curve"/>
      <point x="1071" y="518" type="line"/>
      <point x="1071" y="428" type="line"/>
      <point x="1075" y="428" type="line"/>
      <point x="1188" y="218"/>
      <point x="1348" y="57"/>
      <point x="1599" y="57" type="curve" smooth="yes"/>
      <point x="1855" y="57"/>
      <point x="2013" y="212"/>
    </contour>
    <contour>
      <point x="1975" y="473" type="line"/>
      <point x="1975" y="233"/>
      <point x="1832" y="91"/>
      <point x="1601" y="91" type="curve" smooth="yes"/>
      <point x="1341" y="91"/>
      <point x="1206" y="264"/>
      <point x="1091" y="473" type="curve"/>
      <point x="1206" y="676"/>
      <point x="1343" y="856"/>
      <point x="1601" y="856" type="curve" smooth="yes"/>
      <point x="1831" y="856"/>
      <point x="1974" y="714"/>
      <point x="1975" y="476" type="curve"/>
    </contour>
  </outline>
</glyph>
<glyph name="integral" format="2">
  <advance width="739"/>
  <unicode hex="222B"/>
  <outline>
    <contour>
      <point x="-151" y="-311" type="curve"/>
      <point x="-149" y="-346" type="line"/>
      <point x="-113" y="-350"/>
      <point x="-76" y="-352"/>
      <point x="-38" y="-352" type="curve" smooth="yes"/>
      <point x="216" y="-352"/>
      <point x="331" y="-259"/>
      <point x="350" y="-10" type="curve"/>
      <point x="426" y="1008" type="line"/>
      <point x="442" y="1227"/>
      <point x="540" y="1316"/>
      <point x="775" y="1316" type="curve" smooth="yes"/>
      <point x="814" y="1316"/>
      <point x="852" y="1314"/>
      <point x="890" y="1309" type="curve"/>
      <point x="888" y="1344" type="line"/>
      <point x="852" y="1348"/>
      <point x="815" y="1350"/>
      <point x="777" y="1350" type="curve" smooth="yes"/>
      <point x="523" y="1350"/>
      <point x="408" y="1257"/>
      <point x="389" y="1008" type="curve"/>
      <point x="313" y="-10" type="line"/>
      <point x="297" y="-229"/>
      <point x="199" y="-318"/>
      <point x="-36" y="-318" type="curve" smooth="yes"/>
      <point x="-75" y="-318"/>
      <point x="-113" y="-316"/>
    </contour>
  </outline>
</glyph>
<glyph name="notequal" format="2">
  <advance width="1389"/>
  <unicode hex="2260"/>
  <outline>
    <contour>
      <point x="389" y="29" type="line"/>
      <point x="428" y="29" type="line"/>
      <point x="1003" y="1198" type="line"/>
      <point x="964" y="1198" type="line"/>
    </contour>
    <component base="equal" yOffset="1"/>
  </outline>
</glyph>
<glyph name="lessequal" format="2">
  <advance width="1389"/>
  <unicode hex="2264"/>
  <outline>
    <contour>
      <point x="1204" y="391" type="line"/>
      <point x="1204" y="431" type="line"/>
      <point x="217" y="751" type="line"/>
      <point x="217" y="777" type="line"/>
      <point x="1204" y="1097" type="line"/>
      <point x="1204" y="1137" type="line"/>
      <point x="185" y="802" type="line"/>
      <point x="185" y="726" type="line"/>
    </contour>
    <contour>
      <point x="185" y="132" type="line"/>
      <point x="1204" y="132" type="line"/>
      <point x="1204" y="166" type="line"/>
      <point x="185" y="166" type="line"/>
    </contour>
  </outline>
</glyph>
<glyph name="greaterequal" format="2">
  <advance width="1389"/>
  <unicode hex="2265"/>
  <outline>
    <contour>
      <point x="185" y="391" type="line"/>
      <point x="1204" y="726" type="line"/>
      <point x="1204" y="802" type="line"/>
      <point x="185" y="1137" type="line"/>
      <point x="185" y="1097" type="line"/>
      <point x="1172" y="777" type="line"/>
      <point x="1172" y="751" type="line"/>
      <point x="185" y="431" type="line"/>
    </contour>
    <contour>
      <point x="1204" y="132" type="line"/>
      <point x="1204" y="166" type="line"/>
      <point x="185" y="166" type="line"/>
      <point x="185" y="132" type="line"/>
    </contour>
  </outline>
</glyph>
<glyph name="lozenge" format="2">
  <advance width="1361"/>
  <unicode hex="25CA"/>
  <outline>
    <contour>
      <point x="87" y="624" type="line"/>
      <point x="705" y="1278" type="line"/>
      <point x="657" y="1278" type="line"/>
      <point x="65" y="657" type="line"/>
      <point x="65" y="623" type="line"/>
    </contour>
    <contour>
      <point x="87" y="655" type="line"/>
      <point x="65" y="623" type="line"/>
      <point x="661" y="0" type="line"/>
      <point x="705" y="0" type="line"/>
    </contour>
    <contour>
      <point x="1274" y="624" type="line"/>
      <point x="1296" y="623" type="line"/>
      <point x="1296" y="657" type="line"/>
      <point x="700" y="1278" type="line"/>
      <point x="656" y="1278" type="line"/>
    </contour>
    <contour>
      <point x="1274" y="655" type="line"/>
      <point x="656" y="0" type="line"/>
      <point x="700" y="0" type="line"/>
      <point x="1296" y="623" type="line"/>
    </contour>
  </outline>
</glyph>
<glyph name="leftanglebracketmath" format="2">
  <advance width="847"/>
  <unicode hex="27E8"/>
  <outline>
    <contour>
      <point x="250" y="548" type="line"/>
      <point x="719" y="1317" type="line"/>
      <point x="676" y="1317" type="line"/>
      <point x="216" y="568" type="line"/>
      <point x="216" y="528" type="line"/>
      <point x="676" y="-221" type="line"/>
      <point x="719" y="-221" type="line"/>
    </contour>
  </outline>
</glyph>
<glyph name="rightanglebracketmath" format="2">
  <advance width="847"/>
  <unicode hex="27E9"/>
  <outline>
    <contour>
      <point x="597" y="548" type="line"/>
      <point x="128" y="-221" type="line"/>
      <point x="171" y="-221" type="line"/>
      <point x="631" y="528" type="line"/>
      <point x="631" y="568" type="line"/>
      <point x="171" y="1317" type="line"/>
      <point x="128" y="1317" type="line"/>
    </contour>
  </outline>
</glyph>
<glyph name="__hookabovecombsmall.case" format="2">
  <advance width="588"/>
  <anchor x="242" y="952" name="_top"/>
  <outline>
    <contour>
      <point x="229" y="1080" type="curve"/>
      <point x="223" y="1110" type="line"/>
      <point x="345" y="1133"/>
      <point x="411" y="1169"/>
      <point x="411" y="1242" type="curve" smooth="yes"/>
      <point x="411" y="1306"/>
      <point x="370" y="1336"/>
      <point x="293" y="1336" type="curve" smooth="yes"/>
      <point x="241" y="1336"/>
      <point x="186" y="1322"/>
      <point x="140" y="1307" type="curve"/>
      <point x="144" y="1339" type="line"/>
      <point x="182" y="1353"/>
      <point x="239" y="1368"/>
      <point x="296" y="1368" type="curve" smooth="yes"/>
      <point x="393" y="1368"/>
      <point x="446" y="1325"/>
      <point x="446" y="1243" type="curve" smooth="yes"/>
      <point x="446" y="1154"/>
      <point x="370" y="1104"/>
    </contour>
  </outline>
</glyph>
<glyph name="__hookabovecombsmall" format="2">
  <advance width="588"/>
  <anchor x="242" y="952" name="_top"/>
  <outline>
    <contour>
      <point x="229" y="1080" type="curve"/>
      <point x="223" y="1110" type="line"/>
      <point x="345" y="1134"/>
      <point x="411" y="1172"/>
      <point x="411" y="1248" type="curve" smooth="yes"/>
      <point x="411" y="1316"/>
      <point x="370" y="1348"/>
      <point x="293" y="1348" type="curve" smooth="yes"/>
      <point x="241" y="1348"/>
      <point x="186" y="1334"/>
      <point x="140" y="1319" type="curve"/>
      <point x="144" y="1351" type="line"/>
      <point x="182" y="1365"/>
      <point x="239" y="1380"/>
      <point x="296" y="1380" type="curve" smooth="yes"/>
      <point x="393" y="1380"/>
      <point x="446" y="1335"/>
      <point x="446" y="1249" type="curve" smooth="yes"/>
      <point x="446" y="1157"/>
      <point x="370" y="1105"/>
    </contour>
  </outline>
</glyph>
<glyph name="_acutecombsmall.case" format="2">
  <advance width="556"/>
  <anchor x="114" y="952" name="_top"/>
  <outline>
    <contour>
      <point x="328" y="1330" type="line"/>
      <point x="100" y="1095" type="line"/>
      <point x="100" y="1094" type="line"/>
      <point x="141" y="1094" type="line"/>
      <point x="378" y="1328" type="line"/>
      <point x="378" y="1330" type="line"/>
    </contour>
  </outline>
</glyph>
<glyph name="_acutecombsmall" format="2">
  <advance width="556"/>
  <anchor x="114" y="952" name="_top"/>
  <outline>
    <contour>
      <point x="331" y="1360" type="line"/>
      <point x="103" y="1115" type="line"/>
      <point x="103" y="1114" type="line"/>
      <point x="144" y="1114" type="line"/>
      <point x="381" y="1358" type="line"/>
      <point x="381" y="1360" type="line"/>
    </contour>
  </outline>
</glyph>
<glyph name="_gravecombsmall.case" format="2">
  <advance width="556"/>
  <anchor x="438" y="952" name="_top"/>
  <outline>
    <contour>
      <point x="228" y="1330" type="line"/>
      <point x="178" y="1330" type="line"/>
      <point x="178" y="1328" type="line"/>
      <point x="415" y="1094" type="line"/>
      <point x="456" y="1094" type="line"/>
      <point x="456" y="1095" type="line"/>
    </contour>
  </outline>
</glyph>
<glyph name="_gravecombsmall" format="2">
  <advance width="556"/>
  <anchor x="442" y="952" name="_top"/>
  <outline>
    <contour>
      <point x="225" y="1360" type="line"/>
      <point x="175" y="1360" type="line"/>
      <point x="175" y="1358" type="line"/>
      <point x="412" y="1114" type="line"/>
      <point x="453" y="1114" type="line"/>
      <point x="453" y="1115" type="line"/>
    </contour>
  </outline>
</glyph>
<glyph name="_tildecombsmall.case" format="2">
  <advance width="790"/>
  <anchor x="395" y="952" name="_top"/>
  <outline>
    <contour>
      <point x="560" y="1156" type="curve" smooth="yes"/>
      <point x="665" y="1156"/>
      <point x="690" y="1226"/>
      <point x="690" y="1309" type="curve" smooth="yes"/>
      <point x="690" y="1328" type="line"/>
      <point x="658" y="1328" type="line"/>
      <point x="658" y="1313" type="line" smooth="yes"/>
      <point x="658" y="1239"/>
      <point x="632" y="1190"/>
      <point x="563" y="1190" type="curve" smooth="yes"/>
      <point x="449" y="1190"/>
      <point x="357" y="1318"/>
      <point x="230" y="1318" type="curve" smooth="yes"/>
      <point x="126" y="1318"/>
      <point x="100" y="1246"/>
      <point x="100" y="1163" type="curve" smooth="yes"/>
      <point x="100" y="1146" type="line"/>
      <point x="132" y="1146" type="line"/>
      <point x="132" y="1161" type="line" smooth="yes"/>
      <point x="132" y="1235"/>
      <point x="158" y="1284"/>
      <point x="227" y="1284" type="curve" smooth="yes"/>
      <point x="339" y="1284"/>
      <point x="430" y="1156"/>
    </contour>
  </outline>
</glyph>
<glyph name="_tildecombsmall" format="2">
  <advance width="790"/>
  <anchor x="395" y="952" name="_top"/>
  <outline>
    <contour>
      <point x="560" y="1173" type="curve" smooth="yes"/>
      <point x="665" y="1173"/>
      <point x="690" y="1243"/>
      <point x="690" y="1326" type="curve" smooth="yes"/>
      <point x="690" y="1362" type="line"/>
      <point x="658" y="1362" type="line"/>
      <point x="658" y="1330" type="line" smooth="yes"/>
      <point x="658" y="1256"/>
      <point x="632" y="1207"/>
      <point x="563" y="1207" type="curve" smooth="yes"/>
      <point x="449" y="1207"/>
      <point x="357" y="1335"/>
      <point x="230" y="1335" type="curve" smooth="yes"/>
      <point x="126" y="1335"/>
      <point x="100" y="1263"/>
      <point x="100" y="1180" type="curve" smooth="yes"/>
      <point x="100" y="1146" type="line"/>
      <point x="132" y="1146" type="line"/>
      <point x="132" y="1178" type="line" smooth="yes"/>
      <point x="132" y="1252"/>
      <point x="158" y="1301"/>
      <point x="227" y="1301" type="curve" smooth="yes"/>
      <point x="339" y="1301"/>
      <point x="430" y="1173"/>
    </contour>
  </outline>
</glyph>
<glyph name="brevecomb.case" format="2">
  <anchor x="395" y="1278" name="_top"/>
  <anchor x="395" y="1654" name="top"/>
  <outline>
    <contour>
      <point x="395" y="1437" type="curve" smooth="yes"/>
      <point x="579" y="1437"/>
      <point x="683" y="1525"/>
      <point x="690" y="1700" type="curve"/>
      <point x="656" y="1700" type="line"/>
      <point x="649" y="1544"/>
      <point x="554" y="1469"/>
      <point x="395" y="1469" type="curve" smooth="yes"/>
      <point x="236" y="1469"/>
      <point x="141" y="1544"/>
      <point x="134" y="1700" type="curve"/>
      <point x="100" y="1700" type="line"/>
      <point x="107" y="1525"/>
      <point x="211" y="1437"/>
    </contour>
  </outline>
</glyph>
<glyph name="brevecomb.narrow" format="2">
  <anchor x="385" y="952" name="_top"/>
  <anchor x="385" y="1321" name="top"/>
  <outline>
    <contour>
      <point x="385" y="1101" type="curve" smooth="yes"/>
      <point x="552" y="1101"/>
      <point x="620" y="1200"/>
      <point x="620" y="1379" type="curve"/>
      <point x="586" y="1379" type="line"/>
      <point x="586" y="1219"/>
      <point x="528" y="1133"/>
      <point x="385" y="1133" type="curve" smooth="yes"/>
      <point x="242" y="1133"/>
      <point x="184" y="1219"/>
      <point x="184" y="1379" type="curve"/>
      <point x="150" y="1379" type="line"/>
      <point x="150" y="1200"/>
      <point x="218" y="1101"/>
    </contour>
  </outline>
</glyph>
<glyph name="brevecomb_tildecomb.case" format="2">
  <anchor x="395" y="1278" name="_top"/>
  <anchor x="395" y="1654" name="top"/>
  <outline>
    <contour>
      <point x="557" y="1854" type="curve" smooth="yes"/>
      <point x="660" y="1854"/>
      <point x="684" y="1922"/>
      <point x="684" y="2004" type="curve" smooth="yes"/>
      <point x="684" y="2022" type="line"/>
      <point x="653" y="2022" type="line"/>
      <point x="653" y="2008" type="line" smooth="yes"/>
      <point x="653" y="1935"/>
      <point x="627" y="1887"/>
      <point x="560" y="1887" type="curve" smooth="yes"/>
      <point x="448" y="1887"/>
      <point x="358" y="2013"/>
      <point x="233" y="2013" type="curve" smooth="yes"/>
      <point x="131" y="2013"/>
      <point x="106" y="1942"/>
      <point x="106" y="1861" type="curve" smooth="yes"/>
      <point x="106" y="1844" type="line"/>
      <point x="137" y="1844" type="line"/>
      <point x="137" y="1859" type="line" smooth="yes"/>
      <point x="137" y="1931"/>
      <point x="163" y="1979"/>
      <point x="230" y="1979" type="curve" smooth="yes"/>
      <point x="340" y="1979"/>
      <point x="429" y="1854"/>
    </contour>
    <component base="brevecomb.case"/>
  </outline>
</glyph>
<glyph name="brevecomb_tildecomb" format="2">
  <anchor x="385" y="952" name="_top"/>
  <anchor x="385" y="1321" name="top"/>
  <outline>
    <contour>
      <point x="547" y="1538" type="curve" smooth="yes"/>
      <point x="650" y="1538"/>
      <point x="674" y="1606"/>
      <point x="674" y="1687" type="curve" smooth="yes"/>
      <point x="674" y="1723" type="line"/>
      <point x="643" y="1723" type="line"/>
      <point x="643" y="1691" type="line" smooth="yes"/>
      <point x="643" y="1619"/>
      <point x="617" y="1571"/>
      <point x="550" y="1571" type="curve" smooth="yes"/>
      <point x="438" y="1571"/>
      <point x="348" y="1696"/>
      <point x="223" y="1696" type="curve" smooth="yes"/>
      <point x="121" y="1696"/>
      <point x="96" y="1626"/>
      <point x="96" y="1544" type="curve" smooth="yes"/>
      <point x="96" y="1511" type="line"/>
      <point x="127" y="1511" type="line"/>
      <point x="127" y="1542" type="line" smooth="yes"/>
      <point x="127" y="1615"/>
      <point x="153" y="1663"/>
      <point x="220" y="1663" type="curve" smooth="yes"/>
      <point x="330" y="1663"/>
      <point x="419" y="1538"/>
    </contour>
    <component base="brevecomb"/>
  </outline>
</glyph>
<glyph name="breveinvertedcomb.case" format="2">
  <anchor x="395" y="1278" name="_top"/>
  <anchor x="395" y="1654" name="top"/>
  <outline>
    <contour>
      <point x="395" y="1713" type="curve" smooth="yes"/>
      <point x="211" y="1713"/>
      <point x="107" y="1625"/>
      <point x="100" y="1450" type="curve"/>
      <point x="134" y="1450" type="line"/>
      <point x="141" y="1606"/>
      <point x="236" y="1681"/>
      <point x="395" y="1681" type="curve" smooth="yes"/>
      <point x="554" y="1681"/>
      <point x="649" y="1606"/>
      <point x="656" y="1450" type="curve"/>
      <point x="690" y="1450" type="line"/>
      <point x="683" y="1625"/>
      <point x="579" y="1713"/>
    </contour>
  </outline>
</glyph>
<glyph name="breveinvertedcomb.narrow" format="2">
  <anchor x="385" y="952" name="_top"/>
  <anchor x="385" y="1321" name="top"/>
  <outline>
    <contour>
      <point x="385" y="1392" type="curve" smooth="yes"/>
      <point x="218" y="1392"/>
      <point x="150" y="1293"/>
      <point x="150" y="1114" type="curve"/>
      <point x="184" y="1114" type="line"/>
      <point x="184" y="1274"/>
      <point x="242" y="1360"/>
      <point x="385" y="1360" type="curve" smooth="yes"/>
      <point x="528" y="1360"/>
      <point x="586" y="1274"/>
      <point x="586" y="1114" type="curve"/>
      <point x="620" y="1114" type="line"/>
      <point x="620" y="1293"/>
      <point x="552" y="1392"/>
    </contour>
  </outline>
</glyph>
<glyph name="caroncomb.alt" format="2">
  <anchor x="188" y="1278" name="_topright"/>
  <outline>
    <contour>
      <point x="224" y="1278" type="curve"/>
      <point x="190" y="1278" type="line"/>
      <point x="195" y="1244"/>
      <point x="198" y="1209"/>
      <point x="198" y="1168" type="curve" smooth="yes"/>
      <point x="198" y="1038"/>
      <point x="170" y="935"/>
      <point x="84" y="833" type="curve"/>
      <point x="106" y="813" type="line"/>
      <point x="200" y="921"/>
      <point x="232" y="1032"/>
      <point x="232" y="1170" type="curve" smooth="yes"/>
      <point x="232" y="1217"/>
      <point x="227" y="1256"/>
    </contour>
  </outline>
</glyph>
<glyph name="circumflexcomb_tildecomb.case" format="2">
  <anchor x="452" y="1278" name="_top"/>
  <anchor x="455" y="1654" name="top"/>
  <outline>
    <contour>
      <point x="617" y="1854" type="curve" smooth="yes"/>
      <point x="720" y="1854"/>
      <point x="744" y="1922"/>
      <point x="744" y="2004" type="curve" smooth="yes"/>
      <point x="744" y="2022" type="line"/>
      <point x="713" y="2022" type="line"/>
      <point x="713" y="2008" type="line" smooth="yes"/>
      <point x="713" y="1935"/>
      <point x="687" y="1887"/>
      <point x="620" y="1887" type="curve" smooth="yes"/>
      <point x="508" y="1887"/>
      <point x="418" y="2013"/>
      <point x="293" y="2013" type="curve" smooth="yes"/>
      <point x="191" y="2013"/>
      <point x="166" y="1942"/>
      <point x="166" y="1861" type="curve" smooth="yes"/>
      <point x="166" y="1844" type="line"/>
      <point x="197" y="1844" type="line"/>
      <point x="197" y="1859" type="line" smooth="yes"/>
      <point x="197" y="1931"/>
      <point x="223" y="1979"/>
      <point x="290" y="1979" type="curve" smooth="yes"/>
      <point x="400" y="1979"/>
      <point x="489" y="1854"/>
    </contour>
    <component base="circumflexcomb.case"/>
  </outline>
</glyph>
<glyph name="circumflexcomb_tildecomb" format="2">
  <anchor x="412" y="952" name="_top"/>
  <anchor x="412" y="1321" name="top"/>
  <outline>
    <contour>
      <point x="574" y="1538" type="curve" smooth="yes"/>
      <point x="677" y="1538"/>
      <point x="701" y="1606"/>
      <point x="701" y="1687" type="curve" smooth="yes"/>
      <point x="701" y="1723" type="line"/>
      <point x="670" y="1723" type="line"/>
      <point x="670" y="1691" type="line" smooth="yes"/>
      <point x="670" y="1619"/>
      <point x="644" y="1571"/>
      <point x="577" y="1571" type="curve" smooth="yes"/>
      <point x="465" y="1571"/>
      <point x="375" y="1696"/>
      <point x="250" y="1696" type="curve" smooth="yes"/>
      <point x="148" y="1696"/>
      <point x="123" y="1626"/>
      <point x="123" y="1544" type="curve" smooth="yes"/>
      <point x="123" y="1511" type="line"/>
      <point x="154" y="1511" type="line"/>
      <point x="154" y="1542" type="line" smooth="yes"/>
      <point x="154" y="1615"/>
      <point x="180" y="1663"/>
      <point x="247" y="1663" type="curve" smooth="yes"/>
      <point x="357" y="1663"/>
      <point x="446" y="1538"/>
    </contour>
    <component base="circumflexcomb"/>
  </outline>
</glyph>
<glyph name="commaturnedabovecomb.case" format="2">
  <anchor x="189" y="1278" name="_top"/>
  <anchor x="164" y="1727" name="top"/>
  <outline>
    <contour>
      <point x="138" y="1450" type="curve"/>
      <point x="175" y="1450" type="line"/>
      <point x="173" y="1473"/>
      <point x="171" y="1498"/>
      <point x="171" y="1524" type="curve" smooth="yes"/>
      <point x="171" y="1632"/>
      <point x="195" y="1713"/>
      <point x="261" y="1798" type="curve"/>
      <point x="239" y="1819" type="line"/>
      <point x="160" y="1728"/>
      <point x="134" y="1638"/>
      <point x="134" y="1523" type="curve" smooth="yes"/>
      <point x="134" y="1494"/>
      <point x="136" y="1470"/>
    </contour>
  </outline>
</glyph>
<glyph name="dblgravecomb.case" format="2">
  <anchor x="548" y="1278" name="_top"/>
  <anchor x="369" y="1654" name="top"/>
  <outline>
    <contour>
      <point x="151" y="1704" type="line"/>
      <point x="100" y="1704" type="line"/>
      <point x="100" y="1704" type="line"/>
      <point x="362" y="1450" type="line"/>
      <point x="407" y="1450" type="line"/>
      <point x="407" y="1450" type="line"/>
    </contour>
    <contour>
      <point x="488" y="1704" type="line"/>
      <point x="436" y="1704" type="line"/>
      <point x="436" y="1704" type="line"/>
      <point x="699" y="1450" type="line"/>
      <point x="743" y="1450" type="line"/>
      <point x="743" y="1450" type="line"/>
    </contour>
  </outline>
</glyph>
<glyph name="dblgravecomb.narrow" format="2">
  <anchor x="510" y="952" name="_top"/>
  <anchor x="379" y="1321" name="top"/>
  <outline>
    <contour>
      <point x="216" y="1388" type="line"/>
      <point x="168" y="1388" type="line"/>
      <point x="168" y="1388" type="line"/>
      <point x="352" y="1114" type="line"/>
      <point x="391" y="1114" type="line"/>
      <point x="391" y="1114" type="line"/>
    </contour>
    <contour>
      <point x="501" y="1388" type="line"/>
      <point x="452" y="1388" type="line"/>
      <point x="452" y="1388" type="line"/>
      <point x="637" y="1114" type="line"/>
      <point x="675" y="1114" type="line"/>
      <point x="675" y="1114" type="line"/>
    </contour>
  </outline>
</glyph>
<glyph name="dotaccentcomb.case" format="2">
  <anchor x="157" y="1278" name="_top"/>
  <anchor x="157" y="1654" name="top"/>
  <outline>
    <contour>
      <point x="157" y="1491" type="curve" smooth="yes"/>
      <point x="193" y="1491"/>
      <point x="214" y="1508"/>
      <point x="214" y="1542" type="curve" smooth="yes"/>
      <point x="214" y="1546" type="line" smooth="yes"/>
      <point x="214" y="1576"/>
      <point x="193" y="1594"/>
      <point x="157" y="1594" type="curve" smooth="yes"/>
      <point x="122" y="1594"/>
      <point x="100" y="1576"/>
      <point x="100" y="1546" type="curve" smooth="yes"/>
      <point x="100" y="1542" type="line" smooth="yes"/>
      <point x="100" y="1508"/>
      <point x="122" y="1491"/>
    </contour>
  </outline>
</glyph>
<glyph name="horncomb.case" format="2">
  <anchor x="311" y="1278" name="_topright"/>
  <anchor x="421" y="1553" name="topright"/>
  <outline>
    <contour>
      <point x="111" y="1249" type="line"/>
      <point x="311" y="1266"/>
      <point x="401" y="1322"/>
      <point x="401" y="1437" type="curve" smooth="yes"/>
      <point x="401" y="1488"/>
      <point x="383" y="1525"/>
      <point x="363" y="1562" type="curve"/>
      <point x="326" y="1562" type="line"/>
      <point x="347" y="1524"/>
      <point x="365" y="1482"/>
      <point x="365" y="1436" type="curve" smooth="yes"/>
      <point x="365" y="1330"/>
      <point x="266" y="1292"/>
      <point x="100" y="1277" type="curve"/>
    </contour>
  </outline>
</glyph>
<glyph name="horncomb.case_O" format="2">
  <anchor x="201" y="1278" name="_topright"/>
  <anchor x="431" y="1553" name="topright"/>
  <outline>
    <contour>
      <point x="94" y="1222" type="line"/>
      <point x="313" y="1238"/>
      <point x="411" y="1304"/>
      <point x="411" y="1437" type="curve" smooth="yes"/>
      <point x="411" y="1488"/>
      <point x="393" y="1525"/>
      <point x="373" y="1562" type="curve"/>
      <point x="336" y="1562" type="line"/>
      <point x="357" y="1524"/>
      <point x="375" y="1482"/>
      <point x="375" y="1436" type="curve" smooth="yes"/>
      <point x="375" y="1310"/>
      <point x="266" y="1264"/>
      <point x="83" y="1250" type="curve"/>
    </contour>
  </outline>
</glyph>
<glyph name="horncomb_o" format="2">
  <anchor x="211" y="952" name="_topright"/>
  <anchor x="421" y="1227" name="topright"/>
  <outline>
    <contour>
      <point x="61" y="909" type="line"/>
      <point x="297" y="912"/>
      <point x="401" y="999"/>
      <point x="401" y="1114" type="curve" smooth="yes"/>
      <point x="401" y="1168"/>
      <point x="383" y="1207"/>
      <point x="363" y="1246" type="curve"/>
      <point x="326" y="1246" type="line"/>
      <point x="347" y="1206"/>
      <point x="365" y="1162"/>
      <point x="365" y="1113" type="curve" smooth="yes"/>
      <point x="365" y="1003"/>
      <point x="246" y="939"/>
      <point x="50" y="935" type="curve"/>
    </contour>
  </outline>
</glyph>
<glyph name="hungarumlautcomb.case" format="2">
  <anchor x="295" y="1278" name="_top"/>
  <anchor x="484" y="1654" name="top"/>
  <outline>
    <contour>
      <point x="692" y="1704" type="line"/>
      <point x="436" y="1450" type="line"/>
      <point x="436" y="1450" type="line"/>
      <point x="481" y="1450" type="line"/>
      <point x="743" y="1704" type="line"/>
      <point x="743" y="1704" type="line"/>
    </contour>
    <contour>
      <point x="355" y="1704" type="line"/>
      <point x="100" y="1450" type="line"/>
      <point x="100" y="1450" type="line"/>
      <point x="144" y="1450" type="line"/>
      <point x="407" y="1704" type="line"/>
      <point x="407" y="1704" type="line"/>
    </contour>
  </outline>
</glyph>
<glyph name="hungarumlautcomb.narrow" format="2">
  <anchor x="293" y="952" name="_top"/>
  <anchor x="424" y="1321" name="top"/>
  <outline>
    <contour>
      <point x="587" y="1388" type="line"/>
      <point x="412" y="1114" type="line"/>
      <point x="412" y="1114" type="line"/>
      <point x="451" y="1114" type="line"/>
      <point x="635" y="1388" type="line"/>
      <point x="635" y="1388" type="line"/>
    </contour>
    <contour>
      <point x="302" y="1388" type="line"/>
      <point x="128" y="1114" type="line"/>
      <point x="128" y="1114" type="line"/>
      <point x="166" y="1114" type="line"/>
      <point x="351" y="1388" type="line"/>
      <point x="351" y="1388" type="line"/>
    </contour>
  </outline>
</glyph>
<glyph name="ogonekcomb.case" format="2">
  <anchor x="315" y="0" name="_ogonek"/>
  <outline>
    <contour>
      <point x="225" y="-406" type="curve" smooth="yes"/>
      <point x="264" y="-406"/>
      <point x="311" y="-397"/>
      <point x="335" y="-384" type="curve"/>
      <point x="343" y="-349" type="line"/>
      <point x="305" y="-366"/>
      <point x="270" y="-372"/>
      <point x="232" y="-372" type="curve" smooth="yes"/>
      <point x="144" y="-372"/>
      <point x="87" y="-334"/>
      <point x="87" y="-241" type="curve" smooth="yes"/>
      <point x="87" y="-239" type="line" smooth="yes"/>
      <point x="87" y="-139"/>
      <point x="159" y="-57"/>
      <point x="267" y="0" type="curve"/>
      <point x="267" y="2" type="line"/>
      <point x="229" y="8" type="line"/>
      <point x="229" y="8" type="line"/>
      <point x="123" y="-53"/>
      <point x="50" y="-136"/>
      <point x="50" y="-242" type="curve" smooth="yes"/>
      <point x="50" y="-243" type="line" smooth="yes"/>
      <point x="50" y="-349"/>
      <point x="114" y="-406"/>
    </contour>
  </outline>
</glyph>
<glyph name="periodcentered.loclCAT.case" format="2">
  <outline>
    <contour>
      <point x="-435" y="657" type="curve" smooth="yes"/>
      <point x="-399" y="657"/>
      <point x="-378" y="674"/>
      <point x="-378" y="708" type="curve" smooth="yes"/>
      <point x="-378" y="712" type="line" smooth="yes"/>
      <point x="-378" y="742"/>
      <point x="-399" y="760"/>
      <point x="-435" y="760" type="curve" smooth="yes"/>
      <point x="-470" y="760"/>
      <point x="-492" y="742"/>
      <point x="-492" y="712" type="curve" smooth="yes"/>
      <point x="-492" y="708" type="line" smooth="yes"/>
      <point x="-492" y="674"/>
      <point x="-470" y="657"/>
    </contour>
  </outline>
</glyph>
<glyph name="periodcentered.loclCAT" format="2">
  <advance width="30"/>
  <outline>
    <contour>
      <point x="15" y="657" type="curve" smooth="yes"/>
      <point x="51" y="657"/>
      <point x="72" y="674"/>
      <point x="72" y="708" type="curve" smooth="yes"/>
      <point x="72" y="712" type="line" smooth="yes"/>
      <point x="72" y="742"/>
      <point x="51" y="760"/>
      <point x="15" y="760" type="curve" smooth="yes"/>
      <point x="-20" y="760"/>
      <point x="-42" y="742"/>
      <point x="-42" y="712" type="curve" smooth="yes"/>
      <point x="-42" y="708" type="line" smooth="yes"/>
      <point x="-42" y="674"/>
      <point x="-20" y="657"/>
    </contour>
  </outline>
</glyph>
